<svg xmlns="http://www.w3.org/2000/svg" xmlns:xlink="http://www.w3.org/1999/xlink" width="32" height="32" viewBox="0 0 32 32"><defs><clipPath id="a"><rect width="32" height="32"/></clipPath><clipPath id="c"><rect width="32" height="32" transform="translate(-19.6 -17.3)"/></clipPath><clipPath id="d"><rect width="32" height="32" transform="translate(-17.5 -17.3)"/></clipPath><clipPath id="e"><rect width="32" height="32" transform="translate(-15.6 -17.3)"/></clipPath></defs><g clip-path="url(#a)"><path d="M11.3,20.4c-.3-.4-.6-1.1-1.2-2-.3-.5-1.2-1.5-1.5-1.9a1.183,1.183,0,0,1-.1-1,1.41,1.41,0,0,1,1.4-1.1,2.666,2.666,0,0,1,1.4.7c.2.2.5.6.7.8s.2.3.4.5c.2.3.3.5.2.1-.1-.5-.2-1.3-.4-2.1a8.112,8.112,0,0,0-.3-1.1c-.1-.5-.2-.8-.3-1.3-.1-.3-.2-1.1-.3-1.5a2.273,2.273,0,0,1,.3-1.8,1.227,1.227,0,0,1,1.3-.2,2.567,2.567,0,0,1,.9,1.3,8.3,8.3,0,0,1,.5,2c.2,1,.5,2.5.5,2.8a7.519,7.519,0,0,1,0-1.5,1.12,1.12,0,0,1,.7-.8,2.769,2.769,0,0,1,.9-.1,2.177,2.177,0,0,1,.8.5,4.338,4.338,0,0,1,.4,1.8,9.005,9.005,0,0,1,.3-1.6,1.794,1.794,0,0,1,.7-.5,1.7,1.7,0,0,1,1,0,1.157,1.157,0,0,1,.7.5,8.469,8.469,0,0,1,.4,1.7,5.946,5.946,0,0,1,.3-.7,1.034,1.034,0,0,1,1.9.6v2.3a9.852,9.852,0,0,1-.2,1.7,6.068,6.068,0,0,1-.7,1.4,6.069,6.069,0,0,0-1.2,1.8,4.142,4.142,0,0,0-.1,1,5.527,5.527,0,0,0,.1.9,4.521,4.521,0,0,1-1.2,0,2.132,2.132,0,0,1-1-1.1.385.385,0,0,0-.7,0c-.2.4-.7,1.1-1.1,1.1-.7.1-2.1,0-3.1,0,0,0,.2-1-.2-1.4l-1.1-1.1Z" fill="#fff"/></g><g clip-path="url(#a)"><path d="M11.3,20.4c-.3-.4-.6-1.1-1.2-2-.3-.5-1.2-1.5-1.5-1.9a1.183,1.183,0,0,1-.1-1,1.41,1.41,0,0,1,1.4-1.1,2.666,2.666,0,0,1,1.4.7c.2.2.5.6.7.8s.2.3.4.5c.2.3.3.5.2.1-.1-.5-.2-1.3-.4-2.1a8.112,8.112,0,0,0-.3-1.1c-.1-.5-.2-.8-.3-1.3-.1-.3-.2-1.1-.3-1.5a2.273,2.273,0,0,1,.3-1.8,1.227,1.227,0,0,1,1.3-.2,2.567,2.567,0,0,1,.9,1.3,8.3,8.3,0,0,1,.5,2c.2,1,.5,2.5.5,2.8a7.519,7.519,0,0,1,0-1.5,1.12,1.12,0,0,1,.7-.8,2.769,2.769,0,0,1,.9-.1,2.177,2.177,0,0,1,.8.5,4.338,4.338,0,0,1,.4,1.8,9.005,9.005,0,0,1,.3-1.6,1.794,1.794,0,0,1,.7-.5,1.7,1.7,0,0,1,1,0,1.157,1.157,0,0,1,.7.5,8.469,8.469,0,0,1,.4,1.7,5.946,5.946,0,0,1,.3-.7,1.034,1.034,0,0,1,1.9.6v2.3a9.852,9.852,0,0,1-.2,1.7,6.068,6.068,0,0,1-.7,1.4,6.069,6.069,0,0,0-1.2,1.8,4.142,4.142,0,0,0-.1,1,5.527,5.527,0,0,0,.1.9,4.521,4.521,0,0,1-1.2,0,2.132,2.132,0,0,1-1-1.1.385.385,0,0,0-.7,0c-.2.4-.7,1.1-1.1,1.1-.7.1-2.1,0-3.1,0,0,0,.2-1-.2-1.4l-1.1-1.1Z" fill="none" stroke="#000" stroke-linecap="round" stroke-linejoin="round" stroke-width="0.75"/></g><g transform="translate(19.6 17.3)" clip-path="url(#c)"><line y1="3.4" fill="none" stroke="#000" stroke-linecap="round" stroke-width="0.75"/></g><g transform="translate(17.5 17.3)" clip-path="url(#d)"><line x1="0.1" y1="3.4" fill="none" stroke="#000" stroke-linecap="round" stroke-width="0.75"/></g><g transform="translate(15.6 17.3)" clip-path="url(#e)"><line y2="3.4" fill="none" stroke="#000" stroke-linecap="round" stroke-width="0.75"/></g></svg>