<svg xmlns="http://www.w3.org/2000/svg" xmlns:xlink="http://www.w3.org/1999/xlink" width="101.318" height="89" viewBox="0 0 101.318 89">
  <defs>
    <filter id="Rectangle_467" x="0" y="0" width="70" height="70" filterUnits="userSpaceOnUse">
      <feOffset dy="3" input="SourceAlpha"/>
      <feGaussianBlur stdDeviation="3" result="blur"/>
      <feFlood flood-opacity="0.161"/>
      <feComposite operator="in" in2="blur"/>
      <feComposite in="SourceGraphic"/>
    </filter>
    <filter id="Rectangle_468" x="51.318" y="53" width="37" height="36" filterUnits="userSpaceOnUse">
      <feOffset dy="3" input="SourceAlpha"/>
      <feGaussianBlur stdDeviation="3" result="blur-2"/>
      <feFlood flood-opacity="0.161"/>
      <feComposite operator="in" in2="blur-2"/>
      <feComposite in="SourceGraphic"/>
    </filter>
    <filter id="Rectangle_469" x="31" y="13" width="70.318" height="30" filterUnits="userSpaceOnUse">
      <feOffset dy="3" input="SourceAlpha"/>
      <feGaussianBlur stdDeviation="3" result="blur-3"/>
      <feFlood flood-opacity="0.161"/>
      <feComposite operator="in" in2="blur-3"/>
      <feComposite in="SourceGraphic"/>
    </filter>
    <filter id="Rectangle_470" x="13" y="33" width="43" height="30" filterUnits="userSpaceOnUse">
      <feOffset dy="3" input="SourceAlpha"/>
      <feGaussianBlur stdDeviation="3" result="blur-4"/>
      <feFlood flood-opacity="0.161"/>
      <feComposite operator="in" in2="blur-4"/>
      <feComposite in="SourceGraphic"/>
    </filter>
  </defs>
  <g id="Groupe_163" data-name="Groupe 163" transform="translate(-670 -507)">
    <g transform="matrix(1, 0, 0, 1, 670, 507)" filter="url(#Rectangle_467)">
      <rect id="Rectangle_467-2" data-name="Rectangle 467" width="52" height="52" rx="12" transform="translate(9 6)" fill="#333"/>
    </g>
    <g id="Groupe_2360" data-name="Groupe 2360" transform="translate(-1.682 -3)">
      <g transform="matrix(1, 0, 0, 1, 671.68, 510)" filter="url(#Rectangle_468)">
        <rect id="Rectangle_468-2" data-name="Rectangle 468" width="19" height="18" rx="9" transform="translate(60.32 59)" fill="#ef3241"/>
      </g>
      <g transform="matrix(1, 0, 0, 1, 671.68, 510)" filter="url(#Rectangle_469)">
        <rect id="Rectangle_469-2" data-name="Rectangle 469" width="52.318" height="12" rx="6" transform="translate(40 19)" fill="#4cd964"/>
      </g>
      <g transform="matrix(1, 0, 0, 1, 671.68, 510)" filter="url(#Rectangle_470)">
        <rect id="Rectangle_470-2" data-name="Rectangle 470" width="25" height="12" rx="6" transform="translate(22 39)" fill="#fff"/>
      </g>
    </g>
  </g>
</svg>
