<svg xmlns="http://www.w3.org/2000/svg" viewBox="0 0 317.8 173"><path d="M158 104.2c-1.7 0-3.3-.2-4.8-.8 1.9-1.6 3.9-3.2 5.7-4.7 7.1-6.2 14.2-12.4 20.6-19.3 2.9-3.1 5.7-6.2 8-9.7 3.1-4.6 4.8-9.7 4.5-15.3-.4-6.4-4.5-11.9-10.6-14-2.5-.8-5-1-7.5-.8-3 .3-5.9 1.2-8.6 2.5-5.5 2.7-10.2 6.6-14.4 11-3.4 3.6-6.5 7.5-9.2 11.7-3.1 4.7-5.9 9.7-7.5 15.1-1.6 5.2-2.7 10.5-2.1 16 .1.8.2 1.5.2 2.3-.3.3-.6.5-.9.7-6.2 4-13.2 9.2-20.8 9.7-9.7.6 6-27.2 8-30.9 5-9.2 10.4-18.1 16.2-26.8 5.1-7.6 10.3-15.1 16.3-22.1 4.7-5.5 9.5-10.8 14.3-16.2.9-1 1.9-2 2.6-3.2 1.4-1.9 1.3-3.4-.2-5.2-1.6-1.9-3.6-3.1-5.9-3.8-1-.3-2.5-.7-3.2-.1-3.3 2.9-6.4 6.2-9.4 9.4-3.2 3.4-6.5 6.8-9.6 10.3-4.7 5.2-9.1 10.7-13.4 16.2-5.2 6.8-10.3 13.7-14.8 20.9-2.7 4.4-5.4 8.7-8.2 13.1-2.2 4.1-4.4 8.2-6.5 12.4-3.3 6.6-5.8 13.5-6.7 20.9-.5 4.1-.1 8 1.6 11.8.7 1.6 2.4 3.9 3.7 5.1 3.2 2.9 7 4.6 11.3 5.1 5.1.6 9.9-.4 14.6-2.3 5.4-2.2 10.4-5.1 15.3-8.2 1.2-.7 2.3-1.5 3.5-2.3.6.4 1.1.8 1.7 1.2 4.6 3.4 9.8 4.8 15.3 5.1 4.7.2 9.3-.6 13.7-2.1 6.8-2.3 13.3-5.2 19.4-9 6.9-4.3 13.6-8.9 19.9-13.9 4.6-3.7 9-7.6 13-11.6 0 .1.1.1.1.1.7 1.3 1.2 2.3 1.8 3.4 3 5.6 6 11.3 9.1 16.8 1.3 2.4 2.6 2.9 5.3 2.4 2.7-.5 4.9-1.9 6.8-3.8 2-2.1 2.2-3.7.8-6.3-1.9-3.5-3.9-6.9-5.7-10.4-2.4-4.6-4.7-9.2-7.1-13.9 0-.1-.1-.1-.1-.2 5.8-6.7 10.7-13.1 14.9-18.1 2.7-3.3 6.4-8.1 8.9-11.6 0 0 7.9 20.3 14 43.7-.7 1-1.3 1.9-1.9 2.8-1.4 2-2.8 4-4.3 5.9-6.6 9.3-13.7 18.3-21.4 26.8-4.5 5-9 10-13.4 15-.8.9-1.5 1.9-2.3 2.8-1.6 2-.9 6.6 10.6 8.1 1.3.2 2.4-.1 3.3-1.2 1-1.2 2.1-2.5 3.2-3.7 4.7-5.3 7.3-8.2 11.9-13.5 7.8-8.9 15-18.4 21.9-28.1 7.5-10.6 14.6-21.4 20.9-32.8 5.8-10.5 11.2-23 15.3-34.2.5-1.3 1.3-3.5 1.7-4.9 2.3-7.3-6.7-5.2-11.2-4.1-2 .5-3.1 1.5-3.9 2.8-.7 1.2-1 2.7-1.6 4l-2.7 7.2c-3.9 10.1-9 19.5-14.4 28.8-.2.4-.6.7-1 1.2-1.1-3.5-2.1-6.8-3.2-10.1-2.2-6.7-4.5-13.5-6.8-20.2-1.1-3.2-2.4-6.2-3.7-9.3-1.8-4.3-7.2-5.2-10.9-5.3-2.4-.1-5.2.1-6.9 2.5-.4.6-.9 1.1-1.4 1.6-3.3 4.1-6.5 8.3-9.8 12.4-2.1 2.7-7 8.8-13.9 16.5-3-5.6-5.9-11-7.2-13.2-.4-.7-1.2-1.6-2.1-1.8-3.8-.8-9.2.6-11.6 1.8-2.5 1.3-1.6 3.1 1.2 8.3 1.3 2.3 5.1 9.5 8.7 16.4-8.7 8.7-19.2 18-30.8 26.1-4.9 3.5-10.3 6.2-16 8.3-3.1 1.6-6.6 2.7-10.2 2.8zm-11.3-18.1c.6-2.9 1.7-5.7 3.1-8.4 3.4-6.5 7.6-12.6 12.8-17.8 1.5-1.5 3.1-2.8 4.9-4 1.7-1.1 3.4-2.1 5.4-2.6.8-.2 1.5-.3 2.3-.2s1.5.8 1.6 1.6c.1 1-.2 1.9-.5 2.9-.5 1.3-1.1 2.5-1.9 3.5-2.6 3.4-5.5 6.6-8.6 9.7-14.3 14.1-19.4 17-19.4 17 .1-.7.2-1.2.3-1.7zm-108-52.3c2.6-.6 5.3-1.5 7.9-1.5l-.6 1.1c-.8 1.3-1.5 2.7-2.3 4-3.5 6-8.9 16-11.6 22.4-.3.7-.6 1.3-.9 2-.8.2-1.6.4-2.3.6-4 1.1-8 2.2-11.9 3.4-4 1.2-7.9 2.6-11.6 4.4-1.2.6-2.3 1.2-3.3 2C.6 73.3-.2 74.9 0 76.8.1 78 .6 79 1.3 80c1.6 2.2 3.5 4.2 5.8 5.6.9.5 2 .9 3 .9 1.5 0 2.9-.8 4.3-1.3 2-.7 4.1-1.5 6.1-2.2.2-.1 2.1-.6 2.1-.6L21.4 86c-.2.6-.4 1.2-.6 1.7-3.8 10.2-7.3 19.1-9.7 29.7-.7 2.9-1.2 5.8-1.3 8.8-.1 2.5 1 4.8 3 5.9 2.4 1.3 5 1.8 7.8 1.6 3-.2 4.9-1.1 5.9-4.1.8-2.4 1.7-4.8 2.4-7.2 4.5-14.9 9.7-29.5 15.2-44 .2-.5.5-1.2.7-1.6l39.6-6.1c.9-.1 3.8-.6 4.6-.7 7.6-1.1 10.3-20.3 5.4-19.6-7.8 1.1-15.4 2.3-22.1 3.4l-17.9 3-1.7.3c1.1-3.9 10.5-22.4 14.6-28.5.2-.1.5-.3.8-.3 4.8-.7 9.7-1.5 14.5-2.1 4.1-.5 8.2-1 12.3-1.4 2.3-.2 4.6-.5 6.9-.7l6.9-.6c1.2-.1 2.3-.2 3.5-.3 1.4-.1 2.8-.2 4.1-.3s2.7-.1 4-.2c1.3-.2 2.4-.8 3.5-1.6 1.2-.9 2.2-2 3.1-3.1 1.8-2.2 3.5-4.9 3.7-7.7.2-2.7.3-5.9-3.7-5.8-22.4.8-43.8 3.6-57.1 5.6-6.8 1.1-13.6 2.3-20.4 3.8-5.1 1.1-10.2 2.4-15.2 3.9-3.6 1.1-7.2 2.2-10.7 3.6-3.5 1.3-7.1 2.8-10.2 4.8-1.4.9-2.7 2.1-3.4 3.7-1 2.6.4 4.3 2.1 6.1 1.3 1.3 2.7 2.6 4.4 3.3s3.6.4 5.3-.1c-.3-.2 17-5.4 17-5.4zm156.9 106.9c-48-5.8-99.7 1-145.9 15.4-4.2 1.3-7.4 5.8-8.1 10-.5 3.1.7 8 4.9 6.7 45.2-14.1 95.6-20.8 142.6-15.1 7.2.9 14.7-16 6.5-17z" fill="#ef3340"/></svg>