<svg width="493" height="931" viewBox="0 0 493 931" fill="none" xmlns="http://www.w3.org/2000/svg">
<path d="M254.01 929.646C324.024 929.646 380.781 872.889 380.781 802.875C380.781 732.861 324.024 676.104 254.01 676.104C183.996 676.104 127.239 732.861 127.239 802.875C127.239 872.889 183.996 929.646 254.01 929.646Z" stroke="#707070"/>
<path d="M120.75 302.375L244.73 269.155C273.27 261.508 290.207 232.172 282.56 203.631L242.008 52.2891C234.361 23.7487 205.024 6.8115 176.484 14.4589L52.5046 47.6791C23.9641 55.3265 7.02697 84.6625 14.6744 113.203L55.2264 264.545C62.8738 293.086 92.2098 310.023 120.75 302.375Z" stroke="#707070"/>
<path d="M207.911 684.45C214.366 682.102 218.933 676.661 220.129 669.897L258.308 453.85C259.504 447.083 257.076 440.405 251.813 435.987C246.55 431.568 239.553 430.333 233.095 432.682L26.8301 507.728C20.3724 510.077 15.8047 515.52 14.6115 522.288C13.4182 529.055 15.8489 535.732 21.1136 540.148L189.199 681.151C194.461 685.565 201.456 686.798 207.911 684.45ZM208.253 685.39C201.923 687.693 194.453 686.864 188.556 681.917L20.4707 540.915C8.67036 531.016 12.0137 512.054 26.4881 506.788L232.753 431.742C247.228 426.476 261.974 438.856 259.294 454.024L221.114 670.071C219.774 677.652 214.583 683.087 208.253 685.39Z" fill="#707070"/>
<path d="M211.342 389.599C212.309 394.146 214.007 398.47 216.389 402.449C218.833 406.532 221.939 410.15 225.62 413.201L306.844 480.531C310.103 483.233 313.734 485.418 317.637 487.027C321.459 488.602 325.487 489.603 329.608 490.001C333.729 490.4 337.874 490.189 341.927 489.374C346.065 488.543 350.048 487.093 353.764 485.065L455.145 429.75C459.152 427.563 462.751 424.763 465.84 421.427C468.858 418.169 471.33 414.468 473.188 410.425C475.047 406.383 476.247 402.097 476.756 397.686C477.277 393.168 477.059 388.614 476.11 384.149L455.437 286.887C454.488 282.422 452.833 278.172 450.52 274.258C448.261 270.435 445.422 267.007 442.08 264.07C438.737 261.133 434.974 258.757 430.892 257.009C426.713 255.217 422.286 254.123 417.736 253.755L302.621 244.458C298.402 244.117 294.174 244.412 290.055 245.336C286.021 246.24 282.149 247.733 278.546 249.773C274.943 251.813 271.671 254.366 268.82 257.36C265.909 260.416 263.48 263.89 261.602 267.684L214.786 362.229C212.664 366.514 211.298 371.082 210.726 375.807C210.168 380.411 210.375 385.051 211.342 389.599ZM210.364 389.807C208.403 380.583 209.467 370.717 213.89 361.785L260.705 267.24C268.517 251.465 285.155 242.044 302.702 243.461L417.816 252.759C436.766 254.289 452.462 268.083 456.415 286.679L477.089 383.941C481.041 402.537 472.313 421.522 455.624 430.628L354.243 485.943C338.79 494.375 319.758 492.536 306.206 481.301L224.982 413.971C217.309 407.611 212.324 399.03 210.364 389.807Z" fill="#707070"/>
<path d="M198.146 791.849C198.146 791.595 198.101 791.358 198.01 791.136C197.925 790.915 197.775 790.71 197.56 790.521C197.352 790.326 197.075 790.15 196.73 789.994C196.392 789.831 195.969 789.681 195.461 789.545C194.842 789.375 194.25 789.164 193.683 788.91C193.124 788.656 192.629 788.35 192.199 787.992C191.769 787.634 191.424 787.217 191.164 786.742C190.91 786.267 190.783 785.72 190.783 785.101C190.783 784.502 190.91 783.959 191.164 783.47C191.418 782.982 191.769 782.565 192.219 782.22C192.668 781.875 193.198 781.612 193.81 781.429C194.422 781.241 195.086 781.146 195.803 781.146C196.545 781.146 197.222 781.254 197.834 781.468C198.452 781.683 198.983 781.986 199.426 782.377C199.868 782.761 200.213 783.22 200.461 783.754C200.708 784.287 200.832 784.873 200.832 785.511H198.156C198.143 785.192 198.084 784.899 197.98 784.632C197.883 784.366 197.733 784.138 197.531 783.949C197.336 783.754 197.088 783.604 196.789 783.5C196.496 783.389 196.151 783.334 195.754 783.334C195.389 783.334 195.064 783.379 194.777 783.47C194.497 783.555 194.26 783.679 194.064 783.841C193.869 783.998 193.719 784.186 193.615 784.408C193.517 784.623 193.469 784.857 193.469 785.111C193.469 785.378 193.534 785.619 193.664 785.834C193.801 786.048 193.996 786.244 194.25 786.42C194.504 786.589 194.81 786.745 195.168 786.888C195.532 787.032 195.943 787.165 196.398 787.289C197.049 787.477 197.648 787.709 198.195 787.982C198.742 788.255 199.211 788.581 199.601 788.959C199.999 789.33 200.305 789.756 200.519 790.238C200.741 790.713 200.851 791.244 200.851 791.83C200.851 792.455 200.724 793.011 200.471 793.5C200.223 793.981 199.878 794.392 199.435 794.73C198.993 795.062 198.465 795.316 197.853 795.492C197.241 795.661 196.574 795.746 195.851 795.746C195.402 795.746 194.953 795.703 194.504 795.619C194.061 795.541 193.635 795.417 193.224 795.248C192.821 795.078 192.443 794.867 192.092 794.613C191.74 794.359 191.434 794.063 191.174 793.724C190.92 793.386 190.718 793.002 190.568 792.572C190.425 792.142 190.353 791.667 190.353 791.146H193.049C193.062 791.576 193.137 791.944 193.273 792.25C193.41 792.556 193.599 792.806 193.84 793.002C194.087 793.197 194.38 793.34 194.719 793.431C195.064 793.522 195.441 793.568 195.851 793.568C196.216 793.568 196.538 793.526 196.818 793.441C197.105 793.356 197.346 793.239 197.541 793.089C197.736 792.94 197.886 792.761 197.99 792.552C198.094 792.338 198.146 792.103 198.146 791.849Z" fill="black"/>
<path d="M203.381 781.341H211.603V783.558H208.83V793.353H211.603V795.56H203.381V793.353H206.086V783.558H203.381V781.341Z" fill="black"/>
<path d="M218.156 781.341L219.504 786.683L221.037 781.341H224.445V795.56H221.926V791.351L222.043 784.701L220.178 790.873H218.82L217.15 784.964L217.267 791.351V795.56H214.748V781.341H218.156Z" fill="black"/>
<path d="M229.719 790.345V795.56H226.974V781.341H231.838C232.612 781.341 233.312 781.455 233.937 781.683C234.562 781.905 235.093 782.217 235.529 782.621C235.972 783.018 236.31 783.496 236.545 784.056C236.786 784.616 236.906 785.238 236.906 785.922C236.906 786.56 236.786 787.149 236.545 787.689C236.31 788.229 235.972 788.698 235.529 789.095C235.093 789.486 234.562 789.792 233.937 790.013C233.312 790.235 232.612 790.345 231.838 790.345H229.719ZM229.719 788.119H231.838C232.228 788.119 232.567 788.06 232.853 787.943C233.14 787.826 233.377 787.666 233.566 787.464C233.762 787.263 233.905 787.032 233.996 786.771C234.094 786.504 234.142 786.227 234.142 785.941C234.142 785.609 234.094 785.3 233.996 785.013C233.905 784.727 233.762 784.476 233.566 784.261C233.377 784.047 233.14 783.877 232.853 783.754C232.567 783.63 232.228 783.568 231.838 783.568H229.719V788.119Z" fill="black"/>
<path d="M241.75 793.343H248.41V795.56H238.996V781.341H241.75V793.343Z" fill="black"/>
<path d="M251.428 781.341H259.65V783.558H256.877V793.353H259.65V795.56H251.428V793.353H254.133V783.558H251.428V781.341Z" fill="black"/>
<path d="M271.857 789.672H265.763V795.56H263.01V781.341H272.619V783.578H265.763V787.445H271.857V789.672Z" fill="black"/>
<path d="M279.699 787.894L282.502 781.341H285.519L281.047 790.638L281.037 795.56H278.303L278.293 790.521L273.888 781.341H276.896L279.699 787.894Z" fill="black"/>
<path d="M306.252 791.849C306.252 791.595 306.206 791.358 306.115 791.136C306.03 790.915 305.881 790.71 305.666 790.521C305.457 790.326 305.181 790.15 304.836 789.994C304.497 789.831 304.074 789.681 303.566 789.545C302.948 789.375 302.355 789.164 301.789 788.91C301.229 788.656 300.734 788.35 300.305 787.992C299.875 787.634 299.53 787.217 299.269 786.742C299.015 786.267 298.888 785.72 298.888 785.101C298.888 784.502 299.015 783.959 299.269 783.47C299.523 782.982 299.875 782.565 300.324 782.22C300.773 781.875 301.304 781.612 301.916 781.429C302.528 781.241 303.192 781.146 303.908 781.146C304.65 781.146 305.327 781.254 305.939 781.468C306.558 781.683 307.088 781.986 307.531 782.377C307.974 782.761 308.319 783.22 308.566 783.754C308.814 784.287 308.937 784.873 308.937 785.511H306.262C306.249 785.192 306.19 784.899 306.086 784.632C305.988 784.366 305.838 784.138 305.637 783.949C305.441 783.754 305.194 783.604 304.894 783.5C304.601 783.389 304.256 783.334 303.859 783.334C303.495 783.334 303.169 783.379 302.883 783.47C302.603 783.555 302.365 783.679 302.17 783.841C301.974 783.998 301.825 784.186 301.721 784.408C301.623 784.623 301.574 784.857 301.574 785.111C301.574 785.378 301.639 785.619 301.769 785.834C301.906 786.048 302.101 786.244 302.355 786.42C302.609 786.589 302.915 786.745 303.273 786.888C303.638 787.032 304.048 787.165 304.504 787.289C305.155 787.477 305.754 787.709 306.301 787.982C306.847 788.255 307.316 788.581 307.707 788.959C308.104 789.33 308.41 789.756 308.625 790.238C308.846 790.713 308.957 791.244 308.957 791.83C308.957 792.455 308.83 793.011 308.576 793.5C308.329 793.981 307.984 794.392 307.541 794.73C307.098 795.062 306.571 795.316 305.959 795.492C305.347 795.661 304.68 795.746 303.957 795.746C303.508 795.746 303.058 795.703 302.609 795.619C302.166 795.541 301.74 795.417 301.33 795.248C300.926 795.078 300.549 794.867 300.197 794.613C299.846 794.359 299.54 794.063 299.279 793.724C299.025 793.386 298.823 793.002 298.674 792.572C298.53 792.142 298.459 791.667 298.459 791.146H301.154C301.167 791.576 301.242 791.944 301.379 792.25C301.515 792.556 301.704 792.806 301.945 793.002C302.193 793.197 302.485 793.34 302.824 793.431C303.169 793.522 303.547 793.568 303.957 793.568C304.321 793.568 304.644 793.526 304.924 793.441C305.21 793.356 305.451 793.239 305.646 793.089C305.842 792.94 305.991 792.761 306.096 792.552C306.2 792.338 306.252 792.103 306.252 791.849Z" fill="black"/>
<path d="M317.873 792.591H313.605L312.765 795.56H309.875L314.533 781.341H317.023L321.594 795.56H318.703L317.873 792.591ZM314.279 790.257H317.228L315.773 785.023L314.279 790.257Z" fill="black"/>
<path d="M329.885 792.591H325.617L324.777 795.56H321.887L326.545 781.341H329.035L333.605 795.56H330.715L329.885 792.591ZM326.291 790.257H329.24L327.785 785.023L326.291 790.257Z" fill="black"/>
<path d="M342.287 791.849C342.287 791.595 342.241 791.358 342.15 791.136C342.066 790.915 341.916 790.71 341.701 790.521C341.493 790.326 341.216 790.15 340.871 789.994C340.532 789.831 340.109 789.681 339.601 789.545C338.983 789.375 338.39 789.164 337.824 788.91C337.264 788.656 336.769 788.35 336.34 787.992C335.91 787.634 335.565 787.217 335.305 786.742C335.051 786.267 334.924 785.72 334.924 785.101C334.924 784.502 335.051 783.959 335.305 783.47C335.558 782.982 335.91 782.565 336.359 782.22C336.808 781.875 337.339 781.612 337.951 781.429C338.563 781.241 339.227 781.146 339.943 781.146C340.685 781.146 341.362 781.254 341.974 781.468C342.593 781.683 343.124 781.986 343.566 782.377C344.009 782.761 344.354 783.22 344.601 783.754C344.849 784.287 344.972 784.873 344.972 785.511H342.297C342.284 785.192 342.225 784.899 342.121 784.632C342.023 784.366 341.874 784.138 341.672 783.949C341.476 783.754 341.229 783.604 340.93 783.5C340.637 783.389 340.291 783.334 339.894 783.334C339.53 783.334 339.204 783.379 338.918 783.47C338.638 783.555 338.4 783.679 338.205 783.841C338.01 783.998 337.86 784.186 337.756 784.408C337.658 784.623 337.609 784.857 337.609 785.111C337.609 785.378 337.674 785.619 337.805 785.834C337.941 786.048 338.137 786.244 338.39 786.42C338.644 786.589 338.95 786.745 339.308 786.888C339.673 787.032 340.083 787.165 340.539 787.289C341.19 787.477 341.789 787.709 342.336 787.982C342.883 788.255 343.351 788.581 343.742 788.959C344.139 789.33 344.445 789.756 344.66 790.238C344.881 790.713 344.992 791.244 344.992 791.83C344.992 792.455 344.865 793.011 344.611 793.5C344.364 793.981 344.019 794.392 343.576 794.73C343.133 795.062 342.606 795.316 341.994 795.492C341.382 795.661 340.715 795.746 339.992 795.746C339.543 795.746 339.094 795.703 338.644 795.619C338.202 795.541 337.775 795.417 337.365 795.248C336.961 795.078 336.584 794.867 336.232 794.613C335.881 794.359 335.575 794.063 335.314 793.724C335.06 793.386 334.859 793.002 334.709 792.572C334.566 792.142 334.494 791.667 334.494 791.146H337.189C337.202 791.576 337.277 791.944 337.414 792.25C337.551 792.556 337.739 792.806 337.98 793.002C338.228 793.197 338.521 793.34 338.859 793.431C339.204 793.522 339.582 793.568 339.992 793.568C340.357 793.568 340.679 793.526 340.959 793.441C341.245 793.356 341.486 793.239 341.681 793.089C341.877 792.94 342.027 792.761 342.131 792.552C342.235 792.338 342.287 792.103 342.287 791.849Z" fill="black"/>
<path d="M193.683 813.345V818.56H190.939V804.341H195.803C196.577 804.341 197.277 804.455 197.902 804.683C198.527 804.905 199.058 805.217 199.494 805.621C199.937 806.018 200.275 806.496 200.51 807.056C200.75 807.616 200.871 808.238 200.871 808.922C200.871 809.56 200.75 810.149 200.51 810.689C200.275 811.229 199.937 811.698 199.494 812.095C199.058 812.486 198.527 812.792 197.902 813.013C197.277 813.235 196.577 813.345 195.803 813.345H193.683ZM193.683 811.119H195.803C196.193 811.119 196.532 811.06 196.818 810.943C197.105 810.826 197.342 810.666 197.531 810.464C197.726 810.263 197.87 810.032 197.961 809.771C198.058 809.504 198.107 809.227 198.107 808.941C198.107 808.609 198.058 808.3 197.961 808.013C197.87 807.727 197.726 807.476 197.531 807.261C197.342 807.047 197.105 806.877 196.818 806.754C196.532 806.63 196.193 806.568 195.803 806.568H193.683V811.119Z" fill="black"/>
<path d="M207.599 813.248H205.519V818.56H202.775V804.341H207.541C208.329 804.341 209.041 804.436 209.68 804.625C210.318 804.807 210.861 805.077 211.31 805.435C211.766 805.793 212.114 806.239 212.355 806.773C212.603 807.307 212.726 807.925 212.726 808.629C212.726 809.136 212.665 809.595 212.541 810.005C212.424 810.409 212.251 810.774 212.023 811.099C211.802 811.418 211.532 811.698 211.213 811.939C210.9 812.18 210.549 812.388 210.158 812.564L213.215 818.433V818.56H210.275L207.599 813.248ZM205.519 811.021H207.551C208.325 811.021 208.921 810.826 209.338 810.435C209.761 810.038 209.972 809.498 209.972 808.814C209.972 808.104 209.767 807.554 209.357 807.164C208.947 806.767 208.342 806.568 207.541 806.568H205.519V811.021Z" fill="black"/>
<path d="M224.709 812.496C224.709 813.407 224.588 814.247 224.347 815.015C224.107 815.783 223.758 816.444 223.303 816.998C222.847 817.551 222.29 817.984 221.633 818.297C220.982 818.602 220.246 818.755 219.426 818.755C218.605 818.755 217.876 818.602 217.238 818.297C216.6 817.984 216.063 817.551 215.627 816.998C215.191 816.438 214.859 815.777 214.631 815.015C214.403 814.247 214.289 813.407 214.289 812.496V810.425C214.289 809.514 214.403 808.674 214.631 807.906C214.859 807.138 215.191 806.477 215.627 805.923C216.063 805.364 216.597 804.927 217.228 804.615C217.866 804.302 218.596 804.146 219.416 804.146C220.243 804.146 220.982 804.302 221.633 804.615C222.29 804.927 222.847 805.364 223.303 805.923C223.758 806.477 224.107 807.138 224.347 807.906C224.588 808.674 224.709 809.514 224.709 810.425V812.496ZM221.926 810.406C221.926 809.826 221.877 809.293 221.779 808.804C221.688 808.316 221.541 807.896 221.34 807.545C221.138 807.193 220.877 806.92 220.558 806.724C220.246 806.522 219.865 806.422 219.416 806.422C218.973 806.422 218.602 806.522 218.303 806.724C218.003 806.92 217.762 807.193 217.58 807.545C217.398 807.896 217.267 808.316 217.189 808.804C217.111 809.293 217.072 809.826 217.072 810.406V812.496C217.072 813.069 217.111 813.599 217.189 814.088C217.267 814.576 217.398 814.999 217.58 815.357C217.762 815.715 218.003 815.995 218.303 816.197C218.602 816.399 218.976 816.5 219.426 816.5C219.868 816.5 220.246 816.399 220.558 816.197C220.877 815.995 221.135 815.718 221.33 815.367C221.532 815.009 221.681 814.586 221.779 814.097C221.877 813.609 221.926 813.075 221.926 812.496V810.406Z" fill="black"/>
<path d="M226.74 818.56V804.341H230.422C231.366 804.341 232.219 804.504 232.98 804.83C233.749 805.149 234.403 805.598 234.943 806.177C235.49 806.75 235.91 807.437 236.203 808.238C236.502 809.039 236.652 809.918 236.652 810.875V812.047C236.652 813.004 236.502 813.882 236.203 814.683C235.91 815.477 235.497 816.164 234.963 816.744C234.429 817.317 233.788 817.763 233.039 818.082C232.29 818.401 231.463 818.56 230.558 818.56H226.74ZM229.504 806.568V816.353H230.558C231.073 816.353 231.532 816.255 231.935 816.06C232.346 815.865 232.691 815.582 232.971 815.211C233.257 814.839 233.475 814.39 233.625 813.863C233.775 813.329 233.849 812.724 233.849 812.047V810.855C233.849 810.217 233.775 809.638 233.625 809.117C233.482 808.589 233.263 808.137 232.971 807.759C232.684 807.382 232.326 807.089 231.896 806.88C231.473 806.672 230.982 806.568 230.422 806.568H229.504Z" fill="black"/>
<path d="M248.283 804.341L248.293 813.765C248.293 814.56 248.182 815.266 247.961 815.884C247.746 816.503 247.43 817.027 247.013 817.457C246.603 817.88 246.099 818.202 245.5 818.423C244.907 818.645 244.23 818.755 243.469 818.755C242.752 818.755 242.105 818.645 241.525 818.423C240.952 818.202 240.461 817.88 240.051 817.457C239.64 817.033 239.321 816.513 239.094 815.894C238.872 815.269 238.762 814.56 238.762 813.765L238.771 804.341H241.515L241.525 813.765C241.532 814.683 241.698 815.377 242.023 815.845C242.355 816.314 242.837 816.548 243.469 816.548C244.139 816.548 244.65 816.314 245.002 815.845C245.36 815.377 245.542 814.683 245.549 813.765L245.558 804.341H248.283Z" fill="black"/>
<path d="M260.695 814.107C260.65 814.823 260.493 815.468 260.226 816.041C259.966 816.614 259.614 817.102 259.172 817.505C258.729 817.909 258.202 818.222 257.59 818.443C256.978 818.658 256.301 818.765 255.558 818.765C254.719 818.765 253.973 818.612 253.322 818.306C252.671 817.994 252.124 817.561 251.681 817.007C251.239 816.448 250.9 815.777 250.666 814.996C250.431 814.214 250.314 813.355 250.314 812.418V810.504C250.314 809.56 250.438 808.697 250.685 807.916C250.933 807.134 251.284 806.464 251.74 805.904C252.196 805.344 252.746 804.911 253.39 804.605C254.041 804.293 254.771 804.136 255.578 804.136C256.359 804.136 257.053 804.247 257.658 804.468C258.27 804.69 258.791 805.005 259.221 805.416C259.65 805.826 259.989 806.327 260.236 806.92C260.484 807.512 260.64 808.179 260.705 808.922H257.971C257.944 808.498 257.879 808.127 257.775 807.808C257.678 807.489 257.531 807.226 257.336 807.017C257.147 806.802 256.906 806.643 256.613 806.539C256.327 806.428 255.982 806.373 255.578 806.373C255.155 806.373 254.787 806.464 254.474 806.646C254.162 806.828 253.902 807.095 253.693 807.447C253.491 807.798 253.342 808.231 253.244 808.746C253.146 809.254 253.097 809.833 253.097 810.484V812.418C253.097 813.817 253.293 814.852 253.683 815.523C254.081 816.194 254.706 816.529 255.558 816.529C256.275 816.529 256.841 816.34 257.258 815.963C257.674 815.578 257.905 814.96 257.951 814.107H260.695Z" fill="black"/>
<path d="M273.283 806.578H268.898V818.56H266.144V806.578H261.818V804.341H273.283V806.578Z" fill="black"/>
<path d="M288.947 812.779C288.947 811.861 289.015 810.998 289.152 810.191C289.295 809.377 289.487 808.629 289.728 807.945C289.969 807.255 290.249 806.627 290.568 806.06C290.894 805.494 291.235 804.992 291.594 804.556C291.952 804.12 292.319 803.752 292.697 803.453C293.081 803.147 293.452 802.912 293.81 802.75L294.338 804.234C293.973 804.514 293.609 804.892 293.244 805.367C292.879 805.836 292.551 806.422 292.258 807.125C291.971 807.821 291.737 808.635 291.555 809.566C291.372 810.497 291.281 811.561 291.281 812.759V813.013C291.281 814.218 291.372 815.285 291.555 816.216C291.737 817.147 291.971 817.961 292.258 818.658C292.551 819.361 292.879 819.95 293.244 820.425C293.609 820.901 293.973 821.278 294.338 821.558L293.81 823.023C293.452 822.86 293.081 822.626 292.697 822.32C292.319 822.014 291.952 821.643 291.594 821.207C291.235 820.777 290.894 820.279 290.568 819.713C290.249 819.146 289.969 818.521 289.728 817.838C289.487 817.147 289.295 816.399 289.152 815.591C289.015 814.784 288.947 813.918 288.947 812.994V812.779Z" fill="black"/>
<path d="M298.849 818.56V804.341H303.625C304.4 804.341 305.103 804.42 305.734 804.576C306.372 804.732 306.916 804.97 307.365 805.289C307.814 805.608 308.159 806.011 308.4 806.5C308.648 806.988 308.771 807.564 308.771 808.228C308.765 808.892 308.586 809.488 308.234 810.015C307.889 810.543 307.378 810.943 306.701 811.216C307.111 811.321 307.466 811.477 307.765 811.685C308.065 811.894 308.312 812.141 308.508 812.427C308.709 812.707 308.856 813.017 308.947 813.355C309.045 813.687 309.094 814.032 309.094 814.39C309.094 815.074 308.976 815.676 308.742 816.197C308.508 816.718 308.172 817.154 307.736 817.505C307.3 817.857 306.769 818.121 306.144 818.297C305.519 818.472 304.816 818.56 304.035 818.56H298.849ZM301.603 812.291V816.343H304.045C304.793 816.337 305.363 816.155 305.754 815.797C306.151 815.432 306.349 814.957 306.349 814.371C306.356 813.72 306.18 813.212 305.822 812.847C305.464 812.483 304.911 812.297 304.162 812.291H301.603ZM301.603 810.308H303.644C304.406 810.302 304.992 810.142 305.402 809.83C305.812 809.517 306.021 809.058 306.027 808.453C306.027 807.789 305.822 807.313 305.412 807.027C305.002 806.734 304.409 806.584 303.635 806.578H301.603V810.308Z" fill="black"/>
<path d="M320.275 818.56H310.578V816.705L315.178 811.763C315.536 811.373 315.838 811.018 316.086 810.699C316.333 810.38 316.532 810.09 316.681 809.83C316.838 809.563 316.948 809.315 317.013 809.088C317.085 808.86 317.121 808.638 317.121 808.423C317.121 808.104 317.075 807.821 316.984 807.574C316.893 807.326 316.763 807.118 316.594 806.949C316.431 806.773 316.232 806.64 315.998 806.548C315.77 806.457 315.516 806.412 315.236 806.412C314.487 806.412 313.928 806.62 313.556 807.037C313.192 807.453 313.01 808.036 313.01 808.785H310.285C310.285 808.153 310.405 807.558 310.646 806.998C310.887 806.431 311.226 805.936 311.662 805.513C312.105 805.09 312.635 804.758 313.254 804.517C313.879 804.27 314.569 804.146 315.324 804.146C316.047 804.146 316.685 804.247 317.238 804.449C317.798 804.651 318.263 804.934 318.635 805.298C319.012 805.663 319.299 806.102 319.494 806.617C319.689 807.125 319.787 807.688 319.787 808.306C319.787 808.775 319.712 809.224 319.562 809.654C319.419 810.077 319.211 810.497 318.937 810.914C318.67 811.33 318.348 811.757 317.971 812.193C317.593 812.623 317.173 813.075 316.711 813.55L314.035 816.382H320.275V818.56Z" fill="black"/>
<path d="M322.873 818.56V804.341H327.648C328.423 804.341 329.126 804.42 329.758 804.576C330.396 804.732 330.939 804.97 331.388 805.289C331.838 805.608 332.183 806.011 332.424 806.5C332.671 806.988 332.795 807.564 332.795 808.228C332.788 808.892 332.609 809.488 332.258 810.015C331.913 810.543 331.402 810.943 330.724 811.216C331.135 811.321 331.489 811.477 331.789 811.685C332.088 811.894 332.336 812.141 332.531 812.427C332.733 812.707 332.879 813.017 332.971 813.355C333.068 813.687 333.117 814.032 333.117 814.39C333.117 815.074 333 815.676 332.765 816.197C332.531 816.718 332.196 817.154 331.76 817.505C331.323 817.857 330.793 818.121 330.168 818.297C329.543 818.472 328.84 818.56 328.058 818.56H322.873ZM325.627 812.291V816.343H328.068C328.817 816.337 329.387 816.155 329.777 815.797C330.174 815.432 330.373 814.957 330.373 814.371C330.379 813.72 330.204 813.212 329.846 812.847C329.487 812.483 328.934 812.297 328.185 812.291H325.627ZM325.627 810.308H327.668C328.43 810.302 329.015 810.142 329.426 809.83C329.836 809.517 330.044 809.058 330.051 808.453C330.051 807.789 329.846 807.313 329.435 807.027C329.025 806.734 328.433 806.584 327.658 806.578H325.627V810.308Z" fill="black"/>
<path d="M342.228 812.994C342.228 813.886 342.157 814.732 342.013 815.533C341.87 816.327 341.675 817.069 341.428 817.759C341.18 818.45 340.89 819.078 340.558 819.644C340.233 820.217 339.885 820.725 339.513 821.168C339.142 821.617 338.762 821.998 338.371 822.31C337.98 822.623 337.599 822.86 337.228 823.023L336.711 821.558C337.069 821.285 337.43 820.91 337.795 820.435C338.159 819.96 338.488 819.374 338.781 818.677C339.074 817.981 339.312 817.164 339.494 816.226C339.676 815.289 339.767 814.218 339.767 813.013V812.759C339.767 811.561 339.673 810.494 339.484 809.556C339.295 808.619 339.055 807.798 338.762 807.095C338.469 806.392 338.14 805.803 337.775 805.328C337.417 804.852 337.062 804.478 336.711 804.205L337.228 802.75C337.599 802.912 337.98 803.15 338.371 803.463C338.762 803.775 339.142 804.156 339.513 804.605C339.885 805.048 340.233 805.556 340.558 806.129C340.89 806.695 341.18 807.323 341.428 808.013C341.675 808.703 341.87 809.449 342.013 810.25C342.157 811.044 342.228 811.887 342.228 812.779V812.994Z" fill="black"/>
<path d="M78.7996 137.503H87.0223V139.72H84.2489V149.515H87.0223V151.722H78.7996V149.515H81.5047V139.72H78.7996V137.503Z" fill="black"/>
<path d="M100.128 145.658C100.128 146.569 100.007 147.409 99.7664 148.177C99.5255 148.945 99.1772 149.606 98.7215 150.16C98.2658 150.713 97.7091 151.146 97.0516 151.458C96.4005 151.764 95.6649 151.917 94.8446 151.917C94.0242 151.917 93.2951 151.764 92.6571 151.458C92.019 151.146 91.4819 150.713 91.0457 150.16C90.6095 149.6 90.2775 148.939 90.0496 148.177C89.8218 147.409 89.7078 146.569 89.7078 145.658V143.587C89.7078 142.676 89.8218 141.836 90.0496 141.068C90.2775 140.3 90.6095 139.639 91.0457 139.085C91.4819 138.526 92.0158 138.089 92.6473 137.777C93.2853 137.464 94.0145 137.308 94.8348 137.308C95.6616 137.308 96.4005 137.464 97.0516 137.777C97.7091 138.089 98.2658 138.526 98.7215 139.085C99.1772 139.639 99.5255 140.3 99.7664 141.068C100.007 141.836 100.128 142.676 100.128 143.587V145.658ZM97.3446 143.568C97.3446 142.988 97.2957 142.455 97.1981 141.966C97.1069 141.478 96.9604 141.058 96.7586 140.707C96.5568 140.355 96.2964 140.082 95.9774 139.886C95.6649 139.684 95.284 139.583 94.8348 139.583C94.3921 139.583 94.021 139.684 93.7215 139.886C93.422 140.082 93.1811 140.355 92.9989 140.707C92.8166 141.058 92.6864 141.478 92.6082 141.966C92.5301 142.455 92.491 142.988 92.491 143.568V145.658C92.491 146.231 92.5301 146.761 92.6082 147.25C92.6864 147.738 92.8166 148.161 92.9989 148.519C93.1811 148.877 93.422 149.157 93.7215 149.359C94.021 149.561 94.3953 149.662 94.8446 149.662C95.2873 149.662 95.6649 149.561 95.9774 149.359C96.2964 149.157 96.5535 148.88 96.7489 148.529C96.9507 148.171 97.1004 147.748 97.1981 147.259C97.2957 146.771 97.3446 146.237 97.3446 145.658V143.568Z" fill="black"/>
<path d="M109.6 148.011C109.6 147.757 109.555 147.52 109.464 147.298C109.379 147.077 109.229 146.872 109.014 146.683C108.806 146.488 108.529 146.312 108.184 146.156C107.846 145.993 107.423 145.843 106.915 145.707C106.296 145.537 105.704 145.326 105.138 145.072C104.578 144.818 104.083 144.512 103.653 144.154C103.223 143.796 102.878 143.379 102.618 142.904C102.364 142.429 102.237 141.882 102.237 141.263C102.237 140.664 102.364 140.121 102.618 139.632C102.872 139.144 103.223 138.727 103.673 138.382C104.122 138.037 104.653 137.774 105.264 137.591C105.876 137.403 106.541 137.308 107.257 137.308C107.999 137.308 108.676 137.416 109.288 137.63C109.906 137.845 110.437 138.148 110.88 138.539C111.322 138.923 111.667 139.382 111.915 139.916C112.162 140.449 112.286 141.035 112.286 141.673H109.61C109.597 141.354 109.539 141.061 109.434 140.794C109.337 140.528 109.187 140.3 108.985 140.111C108.79 139.916 108.542 139.766 108.243 139.662C107.95 139.551 107.605 139.496 107.208 139.496C106.843 139.496 106.518 139.541 106.231 139.632C105.951 139.717 105.714 139.841 105.518 140.003C105.323 140.16 105.173 140.348 105.069 140.57C104.972 140.785 104.923 141.019 104.923 141.273C104.923 141.54 104.988 141.781 105.118 141.996C105.255 142.21 105.45 142.406 105.704 142.582C105.958 142.751 106.264 142.907 106.622 143.05C106.986 143.194 107.397 143.327 107.852 143.451C108.503 143.639 109.102 143.871 109.649 144.144C110.196 144.417 110.665 144.743 111.055 145.121C111.453 145.492 111.759 145.918 111.973 146.4C112.195 146.875 112.305 147.406 112.305 147.992C112.305 148.617 112.179 149.173 111.925 149.662C111.677 150.143 111.332 150.554 110.889 150.892C110.447 151.224 109.919 151.478 109.307 151.654C108.695 151.823 108.028 151.908 107.305 151.908C106.856 151.908 106.407 151.865 105.958 151.781C105.515 151.703 105.089 151.579 104.679 151.41C104.275 151.24 103.897 151.029 103.546 150.775C103.194 150.521 102.888 150.225 102.628 149.886C102.374 149.548 102.172 149.164 102.022 148.734C101.879 148.304 101.807 147.829 101.807 147.308H104.503C104.516 147.738 104.591 148.106 104.727 148.412C104.864 148.718 105.053 148.968 105.294 149.164C105.541 149.359 105.834 149.502 106.173 149.593C106.518 149.684 106.895 149.73 107.305 149.73C107.67 149.73 107.992 149.688 108.272 149.603C108.559 149.518 108.8 149.401 108.995 149.251C109.19 149.102 109.34 148.923 109.444 148.714C109.548 148.5 109.6 148.265 109.6 148.011Z" fill="black"/>
<path d="M133.624 148.011C133.624 147.757 133.578 147.52 133.487 147.298C133.403 147.077 133.253 146.872 133.038 146.683C132.83 146.488 132.553 146.312 132.208 146.156C131.869 145.993 131.446 145.843 130.938 145.707C130.32 145.537 129.727 145.326 129.161 145.072C128.601 144.818 128.106 144.512 127.677 144.154C127.247 143.796 126.902 143.379 126.641 142.904C126.388 142.429 126.261 141.882 126.261 141.263C126.261 140.664 126.388 140.121 126.641 139.632C126.895 139.144 127.247 138.727 127.696 138.382C128.145 138.037 128.676 137.774 129.288 137.591C129.9 137.403 130.564 137.308 131.28 137.308C132.022 137.308 132.699 137.416 133.311 137.63C133.93 137.845 134.46 138.148 134.903 138.539C135.346 138.923 135.691 139.382 135.938 139.916C136.186 140.449 136.309 141.035 136.309 141.673H133.634C133.621 141.354 133.562 141.061 133.458 140.794C133.36 140.528 133.21 140.3 133.009 140.111C132.813 139.916 132.566 139.766 132.266 139.662C131.973 139.551 131.628 139.496 131.231 139.496C130.867 139.496 130.541 139.541 130.255 139.632C129.975 139.717 129.737 139.841 129.542 140.003C129.347 140.16 129.197 140.348 129.093 140.57C128.995 140.785 128.946 141.019 128.946 141.273C128.946 141.54 129.011 141.781 129.141 141.996C129.278 142.21 129.473 142.406 129.727 142.582C129.981 142.751 130.287 142.907 130.645 143.05C131.01 143.194 131.42 143.327 131.876 143.451C132.527 143.639 133.126 143.871 133.673 144.144C134.22 144.417 134.688 144.743 135.079 145.121C135.476 145.492 135.782 145.918 135.997 146.4C136.218 146.875 136.329 147.406 136.329 147.992C136.329 148.617 136.202 149.173 135.948 149.662C135.701 150.143 135.356 150.554 134.913 150.892C134.47 151.224 133.943 151.478 133.331 151.654C132.719 151.823 132.052 151.908 131.329 151.908C130.88 151.908 130.43 151.865 129.981 151.781C129.539 151.703 129.112 151.579 128.702 151.41C128.298 151.24 127.921 151.029 127.569 150.775C127.218 150.521 126.912 150.225 126.651 149.886C126.397 149.548 126.195 149.164 126.046 148.734C125.903 148.304 125.831 147.829 125.831 147.308H128.526C128.539 147.738 128.614 148.106 128.751 148.412C128.888 148.718 129.076 148.968 129.317 149.164C129.565 149.359 129.858 149.502 130.196 149.593C130.541 149.684 130.919 149.73 131.329 149.73C131.694 149.73 132.016 149.688 132.296 149.603C132.582 149.518 132.823 149.401 133.018 149.251C133.214 149.102 133.363 148.923 133.468 148.714C133.572 148.5 133.624 148.265 133.624 148.011Z" fill="black"/>
<path d="M145.245 148.753H140.977L140.138 151.722H137.247L141.905 137.503H144.395L148.966 151.722H146.075L145.245 148.753ZM141.651 146.419H144.6L143.145 141.185L141.651 146.419Z" fill="black"/>
<path d="M157.257 148.753H152.989L152.149 151.722H149.259L153.917 137.503H156.407L160.977 151.722H158.087L157.257 148.753ZM153.663 146.419H156.612L155.157 141.185L153.663 146.419Z" fill="black"/>
<path d="M169.659 148.011C169.659 147.757 169.613 147.52 169.522 147.298C169.438 147.077 169.288 146.872 169.073 146.683C168.865 146.488 168.588 146.312 168.243 146.156C167.904 145.993 167.481 145.843 166.973 145.707C166.355 145.537 165.763 145.326 165.196 145.072C164.636 144.818 164.141 144.512 163.712 144.154C163.282 143.796 162.937 143.379 162.677 142.904C162.423 142.429 162.296 141.882 162.296 141.263C162.296 140.664 162.423 140.121 162.677 139.632C162.93 139.144 163.282 138.727 163.731 138.382C164.18 138.037 164.711 137.774 165.323 137.591C165.935 137.403 166.599 137.308 167.315 137.308C168.057 137.308 168.735 137.416 169.347 137.63C169.965 137.845 170.496 138.148 170.938 138.539C171.381 138.923 171.726 139.382 171.973 139.916C172.221 140.449 172.345 141.035 172.345 141.673H169.669C169.656 141.354 169.597 141.061 169.493 140.794C169.395 140.528 169.246 140.3 169.044 140.111C168.848 139.916 168.601 139.766 168.302 139.662C168.009 139.551 167.664 139.496 167.266 139.496C166.902 139.496 166.576 139.541 166.29 139.632C166.01 139.717 165.772 139.841 165.577 140.003C165.382 140.16 165.232 140.348 165.128 140.57C165.03 140.785 164.981 141.019 164.981 141.273C164.981 141.54 165.046 141.781 165.177 141.996C165.313 142.21 165.509 142.406 165.763 142.582C166.016 142.751 166.322 142.907 166.68 143.05C167.045 143.194 167.455 143.327 167.911 143.451C168.562 143.639 169.161 143.871 169.708 144.144C170.255 144.417 170.723 144.743 171.114 145.121C171.511 145.492 171.817 145.918 172.032 146.4C172.253 146.875 172.364 147.406 172.364 147.992C172.364 148.617 172.237 149.173 171.983 149.662C171.736 150.143 171.391 150.554 170.948 150.892C170.505 151.224 169.978 151.478 169.366 151.654C168.754 151.823 168.087 151.908 167.364 151.908C166.915 151.908 166.466 151.865 166.016 151.781C165.574 151.703 165.147 151.579 164.737 151.41C164.333 151.24 163.956 151.029 163.604 150.775C163.253 150.521 162.947 150.225 162.686 149.886C162.432 149.548 162.231 149.164 162.081 148.734C161.938 148.304 161.866 147.829 161.866 147.308H164.561C164.574 147.738 164.649 148.106 164.786 148.412C164.923 148.718 165.111 148.968 165.352 149.164C165.6 149.359 165.893 149.502 166.231 149.593C166.576 149.684 166.954 149.73 167.364 149.73C167.729 149.73 168.051 149.688 168.331 149.603C168.617 149.518 168.858 149.401 169.054 149.251C169.249 149.102 169.399 148.923 169.503 148.714C169.607 148.5 169.659 148.265 169.659 148.011Z" fill="black"/>
<path d="M193.292 148.753H189.024L188.184 151.722H185.294L189.952 137.503H192.442L197.013 151.722H194.122L193.292 148.753ZM189.698 146.419H192.647L191.192 141.185L189.698 146.419Z" fill="black"/>
<path d="M201.231 146.507V151.722H198.487V137.503H203.35C204.125 137.503 204.825 137.617 205.45 137.845C206.075 138.067 206.606 138.379 207.042 138.783C207.485 139.18 207.823 139.658 208.057 140.218C208.298 140.778 208.419 141.4 208.419 142.083C208.419 142.722 208.298 143.311 208.057 143.851C207.823 144.391 207.485 144.86 207.042 145.257C206.606 145.648 206.075 145.954 205.45 146.175C204.825 146.397 204.125 146.507 203.35 146.507H201.231ZM201.231 144.281H203.35C203.741 144.281 204.08 144.222 204.366 144.105C204.653 143.988 204.89 143.828 205.079 143.626C205.274 143.425 205.417 143.194 205.509 142.933C205.606 142.666 205.655 142.389 205.655 142.103C205.655 141.771 205.606 141.462 205.509 141.175C205.417 140.889 205.274 140.638 205.079 140.423C204.89 140.208 204.653 140.039 204.366 139.916C204.08 139.792 203.741 139.73 203.35 139.73H201.231V144.281Z" fill="black"/>
<path d="M213.243 146.507V151.722H210.499V137.503H215.362C216.137 137.503 216.837 137.617 217.462 137.845C218.087 138.067 218.617 138.379 219.054 138.783C219.496 139.18 219.835 139.658 220.069 140.218C220.31 140.778 220.43 141.4 220.43 142.083C220.43 142.722 220.31 143.311 220.069 143.851C219.835 144.391 219.496 144.86 219.054 145.257C218.617 145.648 218.087 145.954 217.462 146.175C216.837 146.397 216.137 146.507 215.362 146.507H213.243ZM213.243 144.281H215.362C215.753 144.281 216.091 144.222 216.378 144.105C216.664 143.988 216.902 143.828 217.091 143.626C217.286 143.425 217.429 143.194 217.52 142.933C217.618 142.666 217.667 142.389 217.667 142.103C217.667 141.771 217.618 141.462 217.52 141.175C217.429 140.889 217.286 140.638 217.091 140.423C216.902 140.208 216.664 140.039 216.378 139.916C216.091 139.792 215.753 139.73 215.362 139.73H213.243V144.281Z" fill="black"/>
<path d="M122.325 168.941C122.325 168.023 122.393 167.16 122.53 166.353C122.673 165.539 122.865 164.791 123.106 164.107C123.347 163.417 123.627 162.789 123.946 162.222C124.272 161.656 124.613 161.154 124.972 160.718C125.33 160.282 125.697 159.914 126.075 159.615C126.459 159.309 126.83 159.074 127.188 158.912L127.716 160.396C127.351 160.676 126.986 161.054 126.622 161.529C126.257 161.998 125.929 162.583 125.636 163.287C125.349 163.983 125.115 164.797 124.932 165.728C124.75 166.659 124.659 167.723 124.659 168.921V169.175C124.659 170.38 124.75 171.447 124.932 172.378C125.115 173.309 125.349 174.123 125.636 174.82C125.929 175.523 126.257 176.112 126.622 176.587C126.986 177.063 127.351 177.44 127.716 177.72L127.188 179.185C126.83 179.022 126.459 178.788 126.075 178.482C125.697 178.176 125.33 177.805 124.972 177.369C124.613 176.939 124.272 176.441 123.946 175.875C123.627 175.308 123.347 174.683 123.106 174C122.865 173.309 122.673 172.561 122.53 171.753C122.393 170.946 122.325 170.08 122.325 169.156V168.941Z" fill="black"/>
<path d="M132.227 174.722V160.503H137.003C137.778 160.503 138.481 160.582 139.112 160.738C139.75 160.894 140.294 161.132 140.743 161.451C141.192 161.77 141.537 162.173 141.778 162.662C142.026 163.15 142.149 163.726 142.149 164.39C142.143 165.054 141.964 165.65 141.612 166.177C141.267 166.705 140.756 167.105 140.079 167.378C140.489 167.483 140.844 167.639 141.143 167.847C141.443 168.056 141.69 168.303 141.886 168.589C142.087 168.869 142.234 169.179 142.325 169.517C142.423 169.849 142.472 170.194 142.472 170.552C142.472 171.236 142.354 171.838 142.12 172.359C141.886 172.88 141.55 173.316 141.114 173.667C140.678 174.019 140.147 174.283 139.522 174.458C138.897 174.634 138.194 174.722 137.413 174.722H132.227ZM134.981 168.453V172.505H137.423C138.171 172.499 138.741 172.317 139.132 171.958C139.529 171.594 139.727 171.119 139.727 170.533C139.734 169.882 139.558 169.374 139.2 169.009C138.842 168.645 138.289 168.459 137.54 168.453H134.981ZM134.981 166.47H137.022C137.784 166.464 138.37 166.304 138.78 165.992C139.19 165.679 139.399 165.22 139.405 164.615C139.405 163.951 139.2 163.475 138.79 163.189C138.38 162.896 137.787 162.746 137.013 162.74H134.981V166.47Z" fill="black"/>
<path d="M153.653 174.722H143.956V172.867L148.555 167.925C148.914 167.535 149.216 167.18 149.464 166.861C149.711 166.542 149.91 166.252 150.059 165.992C150.216 165.725 150.326 165.477 150.391 165.25C150.463 165.022 150.499 164.8 150.499 164.585C150.499 164.266 150.453 163.983 150.362 163.736C150.271 163.488 150.141 163.28 149.972 163.111C149.809 162.935 149.61 162.802 149.376 162.71C149.148 162.619 148.894 162.574 148.614 162.574C147.865 162.574 147.305 162.782 146.934 163.199C146.57 163.615 146.388 164.198 146.388 164.947H143.663C143.663 164.315 143.783 163.72 144.024 163.16C144.265 162.593 144.604 162.098 145.04 161.675C145.483 161.252 146.013 160.92 146.632 160.679C147.257 160.432 147.947 160.308 148.702 160.308C149.425 160.308 150.063 160.409 150.616 160.611C151.176 160.813 151.641 161.096 152.013 161.46C152.39 161.825 152.677 162.264 152.872 162.779C153.067 163.287 153.165 163.85 153.165 164.468C153.165 164.937 153.09 165.386 152.94 165.816C152.797 166.239 152.589 166.659 152.315 167.076C152.048 167.492 151.726 167.919 151.348 168.355C150.971 168.785 150.551 169.237 150.089 169.712L147.413 172.544H153.653V174.722Z" fill="black"/>
<path d="M156.251 174.722V160.503H161.026C161.801 160.503 162.504 160.582 163.136 160.738C163.774 160.894 164.317 161.132 164.766 161.451C165.216 161.77 165.561 162.173 165.802 162.662C166.049 163.15 166.173 163.726 166.173 164.39C166.166 165.054 165.987 165.65 165.636 166.177C165.291 166.705 164.779 167.105 164.102 167.378C164.513 167.483 164.867 167.639 165.167 167.847C165.466 168.056 165.714 168.303 165.909 168.589C166.111 168.869 166.257 169.179 166.348 169.517C166.446 169.849 166.495 170.194 166.495 170.552C166.495 171.236 166.378 171.838 166.143 172.359C165.909 172.88 165.574 173.316 165.138 173.667C164.701 174.019 164.171 174.283 163.546 174.458C162.921 174.634 162.218 174.722 161.436 174.722H156.251ZM159.005 168.453V172.505H161.446C162.195 172.499 162.764 172.317 163.155 171.958C163.552 171.594 163.751 171.119 163.751 170.533C163.757 169.882 163.582 169.374 163.223 169.009C162.865 168.645 162.312 168.459 161.563 168.453H159.005ZM159.005 166.47H161.046C161.807 166.464 162.393 166.304 162.804 165.992C163.214 165.679 163.422 165.22 163.429 164.615C163.429 163.951 163.223 163.475 162.813 163.189C162.403 162.896 161.811 162.746 161.036 162.74H159.005V166.47Z" fill="black"/>
<path d="M175.606 169.156C175.606 170.048 175.535 170.894 175.391 171.695C175.248 172.489 175.053 173.231 174.805 173.921C174.558 174.611 174.268 175.24 173.936 175.806C173.611 176.379 173.263 176.887 172.891 177.33C172.52 177.779 172.139 178.16 171.749 178.472C171.358 178.785 170.977 179.022 170.606 179.185L170.089 177.72C170.447 177.447 170.808 177.072 171.173 176.597C171.537 176.122 171.866 175.536 172.159 174.839C172.452 174.143 172.69 173.326 172.872 172.388C173.054 171.451 173.145 170.38 173.145 169.175V168.921C173.145 167.723 173.051 166.656 172.862 165.718C172.673 164.781 172.432 163.96 172.139 163.257C171.847 162.554 171.518 161.965 171.153 161.49C170.795 161.014 170.44 160.64 170.089 160.367L170.606 158.912C170.977 159.074 171.358 159.312 171.749 159.625C172.139 159.937 172.52 160.318 172.891 160.767C173.263 161.21 173.611 161.718 173.936 162.291C174.268 162.857 174.558 163.485 174.805 164.175C175.053 164.865 175.248 165.611 175.391 166.412C175.535 167.206 175.606 168.049 175.606 168.941V169.156Z" fill="black"/>
<path d="M62.6021 525.657H70.8247V527.874H68.0513V537.669H70.8247V539.876H62.6021V537.669H65.3071V527.874H62.6021V525.657Z" fill="black"/>
<path d="M83.9302 533.812C83.9302 534.723 83.8097 535.563 83.5688 536.331C83.328 537.099 82.9797 537.76 82.5239 538.314C82.0682 538.867 81.5116 539.3 80.854 539.612C80.203 539.918 79.4673 540.071 78.647 540.071C77.8267 540.071 77.0975 539.918 76.4595 539.612C75.8215 539.3 75.2843 538.867 74.8481 538.314C74.4119 537.754 74.0799 537.093 73.8521 536.331C73.6242 535.563 73.5103 534.723 73.5103 533.812V531.741C73.5103 530.83 73.6242 529.99 73.8521 529.222C74.0799 528.454 74.4119 527.793 74.8481 527.239C75.2843 526.68 75.8182 526.243 76.4497 525.931C77.0877 525.618 77.8169 525.462 78.6372 525.462C79.464 525.462 80.203 525.618 80.854 525.931C81.5116 526.243 82.0682 526.68 82.5239 527.239C82.9797 527.793 83.328 528.454 83.5688 529.222C83.8097 529.99 83.9302 530.83 83.9302 531.741V533.812ZM81.147 531.722C81.147 531.142 81.0981 530.609 81.0005 530.12C80.9093 529.632 80.7629 529.212 80.561 528.861C80.3592 528.509 80.0988 528.236 79.7798 528.04C79.4673 527.838 79.0864 527.737 78.6372 527.737C78.1945 527.737 77.8234 527.838 77.5239 528.04C77.2244 528.236 76.9836 528.509 76.8013 528.861C76.619 529.212 76.4888 529.632 76.4106 530.12C76.3325 530.609 76.2935 531.142 76.2935 531.722V533.812C76.2935 534.385 76.3325 534.915 76.4106 535.404C76.4888 535.892 76.619 536.315 76.8013 536.673C76.9836 537.031 77.2244 537.311 77.5239 537.513C77.8234 537.715 78.1978 537.816 78.647 537.816C79.0897 537.816 79.4673 537.715 79.7798 537.513C80.0988 537.311 80.356 537.034 80.5513 536.683C80.7531 536.325 80.9028 535.902 81.0005 535.413C81.0981 534.925 81.147 534.391 81.147 533.812V531.722Z" fill="black"/>
<path d="M93.4028 536.165C93.4028 535.911 93.3573 535.674 93.2661 535.452C93.1815 535.231 93.0317 535.026 92.8169 534.837C92.6086 534.642 92.3319 534.466 91.9868 534.31C91.6483 534.147 91.2251 533.997 90.7173 533.861C90.0988 533.691 89.5063 533.48 88.9399 533.226C88.38 532.972 87.8853 532.666 87.4556 532.308C87.0259 531.95 86.6808 531.533 86.4204 531.058C86.1665 530.583 86.0396 530.036 86.0396 529.417C86.0396 528.818 86.1665 528.275 86.4204 527.786C86.6743 527.298 87.0259 526.881 87.4751 526.536C87.9243 526.191 88.4549 525.928 89.0669 525.745C89.6789 525.556 90.3429 525.462 91.0591 525.462C91.8013 525.462 92.4784 525.57 93.0903 525.784C93.7088 525.999 94.2394 526.302 94.6821 526.693C95.1248 527.077 95.4699 527.536 95.7173 528.07C95.9647 528.603 96.0884 529.189 96.0884 529.827H93.4126C93.3996 529.508 93.341 529.215 93.2368 528.948C93.1392 528.681 92.9894 528.454 92.7876 528.265C92.5923 528.07 92.3449 527.92 92.0454 527.816C91.7524 527.705 91.4074 527.65 91.0103 527.65C90.6457 527.65 90.3201 527.695 90.0337 527.786C89.7537 527.871 89.5161 527.995 89.3208 528.157C89.1255 528.314 88.9757 528.502 88.8716 528.724C88.7739 528.939 88.7251 529.173 88.7251 529.427C88.7251 529.694 88.7902 529.935 88.9204 530.15C89.0571 530.364 89.2524 530.56 89.5063 530.736C89.7603 530.905 90.0662 531.061 90.4243 531.204C90.7889 531.348 91.1991 531.481 91.6548 531.605C92.3058 531.793 92.9048 532.025 93.4517 532.298C93.9985 532.571 94.4673 532.897 94.8579 533.275C95.255 533.646 95.561 534.072 95.7759 534.554C95.9972 535.029 96.1079 535.56 96.1079 536.146C96.1079 536.771 95.981 537.327 95.7271 537.816C95.4797 538.297 95.1346 538.708 94.6919 539.046C94.2492 539.378 93.7218 539.632 93.1099 539.808C92.4979 539.977 91.8306 540.062 91.1079 540.062C90.6587 540.062 90.2095 540.019 89.7603 539.935C89.3175 539.857 88.8911 539.733 88.481 539.564C88.0773 539.394 87.6997 539.183 87.3481 538.929C86.9966 538.675 86.6906 538.379 86.4302 538.04C86.1763 537.702 85.9744 537.318 85.8247 536.888C85.6815 536.458 85.6099 535.983 85.6099 535.462H88.3052C88.3182 535.892 88.3931 536.26 88.5298 536.566C88.6665 536.872 88.8553 537.122 89.0962 537.318C89.3436 537.513 89.6366 537.656 89.9751 537.747C90.3201 537.838 90.6978 537.884 91.1079 537.884C91.4725 537.884 91.7948 537.842 92.0747 537.757C92.3612 537.672 92.6021 537.555 92.7974 537.405C92.9927 537.256 93.1424 537.077 93.2466 536.868C93.3507 536.654 93.4028 536.419 93.4028 536.165Z" fill="black"/>
<path d="M110.024 539.876V525.657H114.799C115.574 525.657 116.277 525.736 116.909 525.892C117.547 526.048 118.09 526.286 118.54 526.605C118.989 526.924 119.334 527.327 119.575 527.816C119.822 528.304 119.946 528.88 119.946 529.544C119.939 530.208 119.76 530.804 119.409 531.331C119.064 531.859 118.553 532.259 117.875 532.532C118.286 532.637 118.64 532.793 118.94 533.001C119.239 533.209 119.487 533.457 119.682 533.743C119.884 534.023 120.03 534.333 120.122 534.671C120.219 535.003 120.268 535.348 120.268 535.706C120.268 536.39 120.151 536.992 119.917 537.513C119.682 538.034 119.347 538.47 118.911 538.821C118.474 539.173 117.944 539.437 117.319 539.612C116.694 539.788 115.991 539.876 115.209 539.876H110.024ZM112.778 533.607V537.659H115.219C115.968 537.653 116.538 537.471 116.928 537.112C117.325 536.748 117.524 536.273 117.524 535.687C117.53 535.036 117.355 534.528 116.997 534.163C116.639 533.799 116.085 533.613 115.336 533.607H112.778ZM112.778 531.624H114.819C115.581 531.618 116.167 531.458 116.577 531.146C116.987 530.833 117.195 530.374 117.202 529.769C117.202 529.105 116.997 528.629 116.586 528.343C116.176 528.05 115.584 527.9 114.809 527.894H112.778V531.624Z" fill="black"/>
<path d="M131.977 533.812C131.977 534.723 131.857 535.563 131.616 536.331C131.375 537.099 131.027 537.76 130.571 538.314C130.115 538.867 129.558 539.3 128.901 539.612C128.25 539.918 127.514 540.071 126.694 540.071C125.874 540.071 125.144 539.918 124.506 539.612C123.868 539.3 123.331 538.867 122.895 538.314C122.459 537.754 122.127 537.093 121.899 536.331C121.671 535.563 121.557 534.723 121.557 533.812V531.741C121.557 530.83 121.671 529.99 121.899 529.222C122.127 528.454 122.459 527.793 122.895 527.239C123.331 526.68 123.865 526.243 124.497 525.931C125.135 525.618 125.864 525.462 126.684 525.462C127.511 525.462 128.25 525.618 128.901 525.931C129.558 526.243 130.115 526.68 130.571 527.239C131.027 527.793 131.375 528.454 131.616 529.222C131.857 529.99 131.977 530.83 131.977 531.741V533.812ZM129.194 531.722C129.194 531.142 129.145 530.609 129.047 530.12C128.956 529.632 128.81 529.212 128.608 528.861C128.406 528.509 128.146 528.236 127.827 528.04C127.514 527.838 127.133 527.737 126.684 527.737C126.241 527.737 125.87 527.838 125.571 528.04C125.271 528.236 125.03 528.509 124.848 528.861C124.666 529.212 124.536 529.632 124.458 530.12C124.379 530.609 124.34 531.142 124.34 531.722V533.812C124.34 534.385 124.379 534.915 124.458 535.404C124.536 535.892 124.666 536.315 124.848 536.673C125.03 537.031 125.271 537.311 125.571 537.513C125.87 537.715 126.245 537.816 126.694 537.816C127.137 537.816 127.514 537.715 127.827 537.513C128.146 537.311 128.403 537.034 128.598 536.683C128.8 536.325 128.95 535.902 129.047 535.413C129.145 534.925 129.194 534.391 129.194 533.812V531.722Z" fill="black"/>
<path d="M143.989 533.812C143.989 534.723 143.868 535.563 143.627 536.331C143.387 537.099 143.038 537.76 142.583 538.314C142.127 538.867 141.57 539.3 140.913 539.612C140.262 539.918 139.526 540.071 138.706 540.071C137.885 540.071 137.156 539.918 136.518 539.612C135.88 539.3 135.343 538.867 134.907 538.314C134.471 537.754 134.139 537.093 133.911 536.331C133.683 535.563 133.569 534.723 133.569 533.812V531.741C133.569 530.83 133.683 529.99 133.911 529.222C134.139 528.454 134.471 527.793 134.907 527.239C135.343 526.68 135.877 526.243 136.508 525.931C137.146 525.618 137.875 525.462 138.696 525.462C139.523 525.462 140.262 525.618 140.913 525.931C141.57 526.243 142.127 526.68 142.583 527.239C143.038 527.793 143.387 528.454 143.627 529.222C143.868 529.99 143.989 530.83 143.989 531.741V533.812ZM141.206 531.722C141.206 531.142 141.157 530.609 141.059 530.12C140.968 529.632 140.821 529.212 140.62 528.861C140.418 528.509 140.157 528.236 139.838 528.04C139.526 527.838 139.145 527.737 138.696 527.737C138.253 527.737 137.882 527.838 137.583 528.04C137.283 528.236 137.042 528.509 136.86 528.861C136.678 529.212 136.547 529.632 136.469 530.12C136.391 530.609 136.352 531.142 136.352 531.722V533.812C136.352 534.385 136.391 534.915 136.469 535.404C136.547 535.892 136.678 536.315 136.86 536.673C137.042 537.031 137.283 537.311 137.583 537.513C137.882 537.715 138.256 537.816 138.706 537.816C139.148 537.816 139.526 537.715 139.838 537.513C140.157 537.311 140.415 537.034 140.61 536.683C140.812 536.325 140.961 535.902 141.059 535.413C141.157 534.925 141.206 534.391 141.206 533.812V531.722Z" fill="black"/>
<path d="M150.317 534.036L148.813 535.687V539.876H146.059V525.657H148.813V532.171L150.102 530.433L153.559 525.657H156.918L152.133 531.946L157.094 539.876H153.833L150.317 534.036Z" fill="black"/>
<path d="M158.696 525.657H166.918V527.874H164.145V537.669H166.918V539.876H158.696V537.669H161.401V527.874H158.696V525.657Z" fill="black"/>
<path d="M179.477 539.876H176.743L172.788 530.706V539.876H170.024V525.657H172.788L176.713 534.788L176.723 525.657H179.477V539.876Z" fill="black"/>
<path d="M191.889 538.216C191.713 538.431 191.472 538.649 191.167 538.87C190.861 539.092 190.496 539.293 190.073 539.476C189.656 539.652 189.187 539.795 188.667 539.905C188.146 540.016 187.586 540.071 186.987 540.071C186.18 540.071 185.45 539.928 184.799 539.642C184.148 539.355 183.592 538.942 183.129 538.402C182.667 537.861 182.309 537.2 182.055 536.419C181.808 535.631 181.684 534.739 181.684 533.743V531.81C181.684 530.814 181.814 529.925 182.075 529.144C182.342 528.356 182.706 527.689 183.168 527.142C183.637 526.595 184.184 526.178 184.809 525.892C185.441 525.605 186.124 525.462 186.86 525.462C187.661 525.462 188.357 525.563 188.95 525.765C189.549 525.967 190.053 526.26 190.463 526.644C190.874 527.021 191.193 527.484 191.42 528.03C191.655 528.577 191.808 529.193 191.879 529.876H189.204C189.112 529.147 188.891 528.6 188.54 528.236C188.194 527.864 187.657 527.679 186.928 527.679C186.577 527.679 186.251 527.77 185.952 527.952C185.652 528.128 185.392 528.389 185.17 528.734C184.949 529.079 184.773 529.508 184.643 530.023C184.513 530.53 184.448 531.12 184.448 531.79V533.743C184.454 535.071 184.676 536.09 185.112 536.8C185.548 537.503 186.215 537.858 187.114 537.864C187.329 537.864 187.54 537.848 187.749 537.816C187.957 537.783 188.152 537.737 188.334 537.679C188.517 537.62 188.676 537.555 188.813 537.484C188.956 537.405 189.064 537.324 189.135 537.239L189.145 534.661H186.792V532.611H191.879L191.889 538.216Z" fill="black"/>
<path d="M213.129 536.907H208.862L208.022 539.876H205.131L209.79 525.657H212.28L216.85 539.876H213.959L213.129 536.907ZM209.536 534.573H212.485L211.03 529.339L209.536 534.573Z" fill="black"/>
<path d="M221.069 534.661V539.876H218.325V525.657H223.188C223.963 525.657 224.663 525.771 225.288 525.999C225.913 526.221 226.443 526.533 226.879 526.937C227.322 527.334 227.661 527.812 227.895 528.372C228.136 528.932 228.256 529.554 228.256 530.237C228.256 530.876 228.136 531.465 227.895 532.005C227.661 532.545 227.322 533.014 226.879 533.411C226.443 533.802 225.913 534.108 225.288 534.329C224.663 534.551 223.963 534.661 223.188 534.661H221.069ZM221.069 532.435H223.188C223.579 532.435 223.917 532.376 224.204 532.259C224.49 532.142 224.728 531.982 224.917 531.78C225.112 531.579 225.255 531.348 225.346 531.087C225.444 530.82 225.493 530.543 225.493 530.257C225.493 529.925 225.444 529.616 225.346 529.329C225.255 529.043 225.112 528.792 224.917 528.577C224.728 528.362 224.49 528.193 224.204 528.07C223.917 527.946 223.579 527.884 223.188 527.884H221.069V532.435Z" fill="black"/>
<path d="M233.081 534.661V539.876H230.336V525.657H235.2C235.974 525.657 236.674 525.771 237.299 525.999C237.924 526.221 238.455 526.533 238.891 526.937C239.334 527.334 239.672 527.812 239.907 528.372C240.148 528.932 240.268 529.554 240.268 530.237C240.268 530.876 240.148 531.465 239.907 532.005C239.672 532.545 239.334 533.014 238.891 533.411C238.455 533.802 237.924 534.108 237.299 534.329C236.674 534.551 235.974 534.661 235.2 534.661H233.081ZM233.081 532.435H235.2C235.59 532.435 235.929 532.376 236.215 532.259C236.502 532.142 236.739 531.982 236.928 531.78C237.124 531.579 237.267 531.348 237.358 531.087C237.456 530.82 237.504 530.543 237.504 530.257C237.504 529.925 237.456 529.616 237.358 529.329C237.267 529.043 237.124 528.792 236.928 528.577C236.739 528.362 236.502 528.193 236.215 528.07C235.929 527.946 235.59 527.884 235.2 527.884H233.081V532.435Z" fill="black"/>
<path d="M124.145 557.095C124.145 556.177 124.213 555.314 124.35 554.507C124.493 553.693 124.685 552.945 124.926 552.261C125.167 551.571 125.447 550.943 125.766 550.376C126.092 549.81 126.433 549.308 126.792 548.872C127.15 548.436 127.517 548.068 127.895 547.769C128.279 547.463 128.65 547.228 129.008 547.066L129.536 548.55C129.171 548.83 128.806 549.208 128.442 549.683C128.077 550.152 127.749 550.737 127.456 551.441C127.169 552.137 126.935 552.951 126.752 553.882C126.57 554.813 126.479 555.877 126.479 557.075V557.329C126.479 558.534 126.57 559.601 126.752 560.532C126.935 561.463 127.169 562.277 127.456 562.974C127.749 563.677 128.077 564.266 128.442 564.741C128.806 565.217 129.171 565.594 129.536 565.874L129.008 567.339C128.65 567.176 128.279 566.942 127.895 566.636C127.517 566.33 127.15 565.959 126.792 565.523C126.433 565.093 126.092 564.595 125.766 564.029C125.447 563.462 125.167 562.837 124.926 562.154C124.685 561.463 124.493 560.715 124.35 559.907C124.213 559.1 124.145 558.234 124.145 557.31V557.095Z" fill="black"/>
<path d="M134.047 562.876V548.657H138.823C139.597 548.657 140.301 548.736 140.932 548.892C141.57 549.048 142.114 549.286 142.563 549.605C143.012 549.924 143.357 550.327 143.598 550.816C143.846 551.304 143.969 551.88 143.969 552.544C143.963 553.208 143.784 553.804 143.432 554.331C143.087 554.859 142.576 555.259 141.899 555.532C142.309 555.637 142.664 555.793 142.963 556.001C143.263 556.209 143.51 556.457 143.706 556.743C143.907 557.023 144.054 557.333 144.145 557.671C144.243 558.003 144.292 558.348 144.292 558.706C144.292 559.39 144.174 559.992 143.94 560.513C143.706 561.034 143.37 561.47 142.934 561.821C142.498 562.173 141.967 562.437 141.342 562.612C140.717 562.788 140.014 562.876 139.233 562.876H134.047ZM136.801 556.607V560.659H139.243C139.991 560.653 140.561 560.471 140.952 560.112C141.349 559.748 141.547 559.273 141.547 558.687C141.554 558.036 141.378 557.528 141.02 557.163C140.662 556.799 140.109 556.613 139.36 556.607H136.801ZM136.801 554.624H138.842C139.604 554.618 140.19 554.458 140.6 554.146C141.01 553.833 141.219 553.374 141.225 552.769C141.225 552.105 141.02 551.629 140.61 551.343C140.2 551.05 139.607 550.9 138.833 550.894H136.801V554.624Z" fill="black"/>
<path d="M155.473 562.876H145.776V561.021L150.375 556.079C150.734 555.689 151.036 555.334 151.284 555.015C151.531 554.696 151.73 554.406 151.879 554.146C152.036 553.879 152.146 553.631 152.211 553.404C152.283 553.176 152.319 552.954 152.319 552.739C152.319 552.42 152.273 552.137 152.182 551.89C152.091 551.642 151.961 551.434 151.792 551.265C151.629 551.089 151.43 550.956 151.196 550.864C150.968 550.773 150.714 550.728 150.434 550.728C149.685 550.728 149.125 550.936 148.754 551.353C148.39 551.769 148.208 552.352 148.208 553.101H145.483C145.483 552.469 145.603 551.874 145.844 551.314C146.085 550.747 146.424 550.252 146.86 549.829C147.303 549.406 147.833 549.074 148.452 548.833C149.077 548.586 149.767 548.462 150.522 548.462C151.245 548.462 151.883 548.563 152.436 548.765C152.996 548.967 153.461 549.25 153.833 549.614C154.21 549.979 154.497 550.418 154.692 550.933C154.887 551.441 154.985 552.004 154.985 552.622C154.985 553.091 154.91 553.54 154.76 553.97C154.617 554.393 154.409 554.813 154.135 555.23C153.868 555.646 153.546 556.073 153.168 556.509C152.791 556.939 152.371 557.391 151.909 557.866L149.233 560.698H155.473V562.876Z" fill="black"/>
<path d="M167.963 558.423C167.918 559.139 167.762 559.784 167.495 560.357C167.234 560.93 166.883 561.418 166.44 561.821C165.997 562.225 165.47 562.538 164.858 562.759C164.246 562.974 163.569 563.081 162.827 563.081C161.987 563.081 161.241 562.928 160.59 562.622C159.939 562.31 159.392 561.877 158.95 561.323C158.507 560.764 158.168 560.093 157.934 559.312C157.7 558.53 157.583 557.671 157.583 556.734V554.82C157.583 553.876 157.706 553.013 157.954 552.232C158.201 551.45 158.553 550.78 159.008 550.22C159.464 549.66 160.014 549.227 160.659 548.921C161.31 548.609 162.039 548.452 162.846 548.452C163.627 548.452 164.321 548.563 164.926 548.784C165.538 549.006 166.059 549.321 166.489 549.732C166.918 550.142 167.257 550.643 167.504 551.236C167.752 551.828 167.908 552.495 167.973 553.237H165.239C165.213 552.814 165.148 552.443 165.043 552.124C164.946 551.805 164.799 551.542 164.604 551.333C164.415 551.118 164.174 550.959 163.881 550.855C163.595 550.744 163.25 550.689 162.846 550.689C162.423 550.689 162.055 550.78 161.743 550.962C161.43 551.144 161.17 551.411 160.961 551.763C160.76 552.114 160.61 552.547 160.512 553.062C160.415 553.57 160.366 554.149 160.366 554.8V556.734C160.366 558.133 160.561 559.168 160.952 559.839C161.349 560.51 161.974 560.845 162.827 560.845C163.543 560.845 164.109 560.656 164.526 560.279C164.943 559.894 165.174 559.276 165.219 558.423H167.963Z" fill="black"/>
<path d="M177.426 557.31C177.426 558.202 177.355 559.048 177.211 559.849C177.068 560.643 176.873 561.385 176.625 562.075C176.378 562.765 176.088 563.394 175.756 563.96C175.431 564.533 175.083 565.041 174.711 565.484C174.34 565.933 173.959 566.314 173.569 566.626C173.178 566.939 172.797 567.176 172.426 567.339L171.909 565.874C172.267 565.601 172.628 565.226 172.993 564.751C173.357 564.276 173.686 563.69 173.979 562.993C174.272 562.297 174.51 561.48 174.692 560.542C174.874 559.605 174.965 558.534 174.965 557.329V557.075C174.965 555.877 174.871 554.81 174.682 553.872C174.493 552.935 174.252 552.114 173.959 551.411C173.667 550.708 173.338 550.119 172.973 549.644C172.615 549.168 172.26 548.794 171.909 548.521L172.426 547.066C172.797 547.228 173.178 547.466 173.569 547.779C173.959 548.091 174.34 548.472 174.711 548.921C175.083 549.364 175.431 549.872 175.756 550.445C176.088 551.011 176.378 551.639 176.625 552.329C176.873 553.019 177.068 553.765 177.211 554.566C177.355 555.36 177.426 556.203 177.426 557.095V557.31Z" fill="black"/>
<path d="M281.541 356.876V342.657H285.223C286.167 342.657 287.019 342.82 287.781 343.146C288.549 343.465 289.204 343.914 289.744 344.493C290.291 345.066 290.711 345.753 291.004 346.554C291.303 347.355 291.453 348.234 291.453 349.191V350.362C291.453 351.32 291.303 352.198 291.004 352.999C290.711 353.793 290.297 354.48 289.764 355.06C289.23 355.633 288.588 356.079 287.84 356.398C287.091 356.717 286.264 356.876 285.359 356.876H281.541ZM284.305 344.884V354.669H285.359C285.874 354.669 286.333 354.571 286.736 354.376C287.146 354.181 287.491 353.898 287.771 353.527C288.058 353.155 288.276 352.706 288.426 352.179C288.575 351.645 288.65 351.04 288.65 350.362V349.171C288.65 348.533 288.575 347.954 288.426 347.433C288.282 346.905 288.064 346.453 287.771 346.075C287.485 345.698 287.127 345.405 286.697 345.196C286.274 344.988 285.782 344.884 285.223 344.884H284.305Z" fill="black"/>
<path d="M302.361 350.646H296.521V354.659H303.348V356.876H293.767V342.657H303.318V344.894H296.521V348.478H302.361V350.646Z" fill="black"/>
<path d="M313.006 353.165C313.006 352.911 312.96 352.674 312.869 352.452C312.784 352.231 312.635 352.026 312.42 351.837C312.211 351.642 311.935 351.466 311.59 351.31C311.251 351.147 310.828 350.997 310.32 350.861C309.702 350.691 309.109 350.48 308.543 350.226C307.983 349.972 307.488 349.666 307.058 349.308C306.629 348.95 306.284 348.533 306.023 348.058C305.769 347.583 305.642 347.036 305.642 346.417C305.642 345.818 305.769 345.275 306.023 344.786C306.277 344.298 306.629 343.881 307.078 343.536C307.527 343.191 308.058 342.928 308.67 342.745C309.282 342.556 309.946 342.462 310.662 342.462C311.404 342.462 312.081 342.57 312.693 342.784C313.312 342.999 313.842 343.302 314.285 343.693C314.728 344.077 315.073 344.536 315.32 345.07C315.568 345.603 315.691 346.189 315.691 346.827H313.015C313.002 346.508 312.944 346.215 312.84 345.948C312.742 345.681 312.592 345.454 312.39 345.265C312.195 345.07 311.948 344.92 311.648 344.816C311.355 344.705 311.01 344.65 310.613 344.65C310.249 344.65 309.923 344.695 309.637 344.786C309.357 344.871 309.119 344.995 308.924 345.157C308.728 345.314 308.579 345.502 308.474 345.724C308.377 345.939 308.328 346.173 308.328 346.427C308.328 346.694 308.393 346.935 308.523 347.15C308.66 347.364 308.855 347.56 309.109 347.736C309.363 347.905 309.669 348.061 310.027 348.204C310.392 348.348 310.802 348.481 311.258 348.605C311.909 348.793 312.508 349.025 313.055 349.298C313.601 349.571 314.07 349.897 314.461 350.275C314.858 350.646 315.164 351.072 315.379 351.554C315.6 352.029 315.711 352.56 315.711 353.146C315.711 353.771 315.584 354.327 315.33 354.816C315.083 355.297 314.737 355.708 314.295 356.046C313.852 356.378 313.325 356.632 312.713 356.808C312.101 356.977 311.433 357.062 310.711 357.062C310.262 357.062 309.812 357.019 309.363 356.935C308.92 356.857 308.494 356.733 308.084 356.564C307.68 356.394 307.303 356.183 306.951 355.929C306.599 355.675 306.293 355.379 306.033 355.04C305.779 354.702 305.577 354.318 305.428 353.888C305.284 353.458 305.213 352.983 305.213 352.462H307.908C307.921 352.892 307.996 353.26 308.133 353.566C308.269 353.872 308.458 354.122 308.699 354.318C308.946 354.513 309.239 354.656 309.578 354.747C309.923 354.838 310.301 354.884 310.711 354.884C311.075 354.884 311.398 354.842 311.678 354.757C311.964 354.672 312.205 354.555 312.4 354.405C312.596 354.256 312.745 354.077 312.849 353.868C312.954 353.654 313.006 353.419 313.006 353.165Z" fill="black"/>
<path d="M318.24 342.657H326.463V344.874H323.689V354.669H326.463V356.876H318.24V354.669H320.945V344.874H318.24V342.657Z" fill="black"/>
<path d="M339.422 355.216C339.246 355.431 339.005 355.649 338.699 355.87C338.393 356.092 338.028 356.293 337.605 356.476C337.189 356.652 336.72 356.795 336.199 356.905C335.678 357.016 335.118 357.071 334.519 357.071C333.712 357.071 332.983 356.928 332.332 356.642C331.681 356.355 331.124 355.942 330.662 355.402C330.2 354.861 329.842 354.2 329.588 353.419C329.34 352.631 329.217 351.739 329.217 350.743V348.81C329.217 347.814 329.347 346.925 329.607 346.144C329.874 345.356 330.239 344.689 330.701 344.142C331.17 343.595 331.717 343.178 332.342 342.892C332.973 342.605 333.657 342.462 334.392 342.462C335.193 342.462 335.89 342.563 336.482 342.765C337.081 342.967 337.586 343.26 337.996 343.644C338.406 344.021 338.725 344.484 338.953 345.03C339.187 345.577 339.34 346.193 339.412 346.876H336.736C336.645 346.147 336.424 345.6 336.072 345.236C335.727 344.864 335.19 344.679 334.461 344.679C334.109 344.679 333.784 344.77 333.484 344.952C333.185 345.128 332.924 345.389 332.703 345.734C332.482 346.079 332.306 346.508 332.176 347.023C332.045 347.53 331.98 348.12 331.98 348.79V350.743C331.987 352.071 332.208 353.09 332.644 353.8C333.081 354.503 333.748 354.858 334.646 354.864C334.861 354.864 335.073 354.848 335.281 354.816C335.489 354.783 335.685 354.737 335.867 354.679C336.049 354.62 336.209 354.555 336.346 354.484C336.489 354.405 336.596 354.324 336.668 354.239L336.678 351.661H334.324V349.611H339.412L339.422 355.216Z" fill="black"/>
<path d="M351.033 356.876H348.299L344.344 347.706V356.876H341.58V342.657H344.344L348.269 351.788L348.279 342.657H351.033V356.876Z" fill="black"/>
<path d="M373.064 353.165C373.064 352.911 373.019 352.674 372.928 352.452C372.843 352.231 372.693 352.026 372.478 351.837C372.27 351.642 371.993 351.466 371.648 351.31C371.31 351.147 370.887 350.997 370.379 350.861C369.76 350.691 369.168 350.48 368.601 350.226C368.042 349.972 367.547 349.666 367.117 349.308C366.687 348.95 366.342 348.533 366.082 348.058C365.828 347.583 365.701 347.036 365.701 346.417C365.701 345.818 365.828 345.275 366.082 344.786C366.336 344.298 366.687 343.881 367.137 343.536C367.586 343.191 368.116 342.928 368.728 342.745C369.34 342.556 370.004 342.462 370.721 342.462C371.463 342.462 372.14 342.57 372.752 342.784C373.37 342.999 373.901 343.302 374.344 343.693C374.786 344.077 375.131 344.536 375.379 345.07C375.626 345.603 375.75 346.189 375.75 346.827H373.074C373.061 346.508 373.002 346.215 372.898 345.948C372.801 345.681 372.651 345.454 372.449 345.265C372.254 345.07 372.006 344.92 371.707 344.816C371.414 344.705 371.069 344.65 370.672 344.65C370.307 344.65 369.982 344.695 369.695 344.786C369.415 344.871 369.178 344.995 368.982 345.157C368.787 345.314 368.637 345.502 368.533 345.724C368.435 345.939 368.387 346.173 368.387 346.427C368.387 346.694 368.452 346.935 368.582 347.15C368.719 347.364 368.914 347.56 369.168 347.736C369.422 347.905 369.728 348.061 370.086 348.204C370.45 348.348 370.861 348.481 371.316 348.605C371.967 348.793 372.566 349.025 373.113 349.298C373.66 349.571 374.129 349.897 374.519 350.275C374.917 350.646 375.223 351.072 375.437 351.554C375.659 352.029 375.769 352.56 375.769 353.146C375.769 353.771 375.642 354.327 375.389 354.816C375.141 355.297 374.796 355.708 374.353 356.046C373.911 356.378 373.383 356.632 372.771 356.808C372.159 356.977 371.492 357.062 370.769 357.062C370.32 357.062 369.871 357.019 369.422 356.935C368.979 356.857 368.553 356.733 368.142 356.564C367.739 356.394 367.361 356.183 367.01 355.929C366.658 355.675 366.352 355.379 366.092 355.04C365.838 354.702 365.636 354.318 365.486 353.888C365.343 353.458 365.271 352.983 365.271 352.462H367.967C367.98 352.892 368.055 353.26 368.191 353.566C368.328 353.872 368.517 354.122 368.758 354.318C369.005 354.513 369.298 354.656 369.637 354.747C369.982 354.838 370.359 354.884 370.769 354.884C371.134 354.884 371.456 354.842 371.736 354.757C372.023 354.672 372.264 354.555 372.459 354.405C372.654 354.256 372.804 354.077 372.908 353.868C373.012 353.654 373.064 353.419 373.064 353.165Z" fill="black"/>
<path d="M382.547 349.21L385.349 342.657H388.367L383.894 351.954L383.885 356.876H381.15L381.14 351.837L376.736 342.657H379.744L382.547 349.21Z" fill="black"/>
<path d="M397.088 353.165C397.088 352.911 397.042 352.674 396.951 352.452C396.866 352.231 396.717 352.026 396.502 351.837C396.293 351.642 396.017 351.466 395.672 351.31C395.333 351.147 394.91 350.997 394.402 350.861C393.784 350.691 393.191 350.48 392.625 350.226C392.065 349.972 391.57 349.666 391.14 349.308C390.711 348.95 390.366 348.533 390.105 348.058C389.851 347.583 389.724 347.036 389.724 346.417C389.724 345.818 389.851 345.275 390.105 344.786C390.359 344.298 390.711 343.881 391.16 343.536C391.609 343.191 392.14 342.928 392.752 342.745C393.364 342.556 394.028 342.462 394.744 342.462C395.486 342.462 396.163 342.57 396.775 342.784C397.394 342.999 397.924 343.302 398.367 343.693C398.81 344.077 399.155 344.536 399.402 345.07C399.65 345.603 399.773 346.189 399.773 346.827H397.098C397.084 346.508 397.026 346.215 396.922 345.948C396.824 345.681 396.674 345.454 396.473 345.265C396.277 345.07 396.03 344.92 395.73 344.816C395.437 344.705 395.092 344.65 394.695 344.65C394.331 344.65 394.005 344.695 393.719 344.786C393.439 344.871 393.201 344.995 393.006 345.157C392.81 345.314 392.661 345.502 392.556 345.724C392.459 345.939 392.41 346.173 392.41 346.427C392.41 346.694 392.475 346.935 392.605 347.15C392.742 347.364 392.937 347.56 393.191 347.736C393.445 347.905 393.751 348.061 394.109 348.204C394.474 348.348 394.884 348.481 395.34 348.605C395.991 348.793 396.59 349.025 397.137 349.298C397.683 349.571 398.152 349.897 398.543 350.275C398.94 350.646 399.246 351.072 399.461 351.554C399.682 352.029 399.793 352.56 399.793 353.146C399.793 353.771 399.666 354.327 399.412 354.816C399.165 355.297 398.82 355.708 398.377 356.046C397.934 356.378 397.407 356.632 396.795 356.808C396.183 356.977 395.515 357.062 394.793 357.062C394.344 357.062 393.894 357.019 393.445 356.935C393.002 356.857 392.576 356.733 392.166 356.564C391.762 356.394 391.385 356.183 391.033 355.929C390.681 355.675 390.375 355.379 390.115 355.04C389.861 354.702 389.659 354.318 389.51 353.888C389.366 353.458 389.295 352.983 389.295 352.462H391.99C392.003 352.892 392.078 353.26 392.215 353.566C392.351 353.872 392.54 354.122 392.781 354.318C393.028 354.513 393.321 354.656 393.66 354.747C394.005 354.838 394.383 354.884 394.793 354.884C395.157 354.884 395.48 354.842 395.76 354.757C396.046 354.672 396.287 354.555 396.482 354.405C396.678 354.256 396.827 354.077 396.931 353.868C397.036 353.654 397.088 353.419 397.088 353.165Z" fill="black"/>
<path d="M412.166 344.894H407.781V356.876H405.027V344.894H400.701V342.657H412.166V344.894Z" fill="black"/>
<path d="M422.478 350.646H416.639V354.659H423.465V356.876H413.885V342.657H423.435V344.894H416.639V348.478H422.478V350.646Z" fill="black"/>
<path d="M429.109 342.657L430.457 347.999L431.99 342.657H435.398V356.876H432.879V352.667L432.996 346.017L431.131 352.189H429.773L428.103 346.28L428.221 352.667V356.876H425.701V342.657H429.109Z" fill="black"/>
</svg>
