<svg xmlns="http://www.w3.org/2000/svg" width="56.898" height="56.646" viewBox="0 0 56.898 56.646">
  <g id="Groupe_2373" data-name="Groupe 2373" transform="translate(-870.602 -3464.854)">
    <line id="Ligne_3" data-name="Ligne 3" x2="9.898" transform="translate(871.602 3493.5)" fill="none" stroke="#ef3241" stroke-linecap="round" stroke-width="2"/>
    <line id="Ligne_4" data-name="Ligne 4" y2="10" transform="translate(926.407 3488.5)" fill="none" stroke="#ef3241" stroke-linecap="round" stroke-width="2"/>
    <line id="Ligne_5" data-name="Ligne 5" y2="10" transform="translate(871.602 3488.5)" fill="none" stroke="#ef3241" stroke-linecap="round" stroke-width="2"/>
    <line id="Ligne_6" data-name="Ligne 6" y2="10.646" transform="translate(899.5 3465.854)" fill="none" stroke="#ef3241" stroke-linecap="round" stroke-width="2"/>
    <line id="Ligne_7" data-name="Ligne 7" y2="10" transform="translate(904.5 3519.886) rotate(90)" fill="none" stroke="#ef3241" stroke-linecap="round" stroke-width="2"/>
    <line id="Ligne_8" data-name="Ligne 8" y2="10" transform="translate(904.5 3465.854) rotate(90)" fill="none" stroke="#ef3241" stroke-linecap="round" stroke-width="2"/>
    <g id="Groupe_164" data-name="Groupe 164" transform="translate(-97 2958.711)">
      <g id="frame" transform="translate(978 516)">
        <g id="Groupe_159" data-name="Groupe 159" transform="translate(0)">
          <g id="Groupe_158" data-name="Groupe 158" transform="translate(0)">
            <path id="Tracé_61" data-name="Tracé 61" d="M248.528,1.732A5.9,5.9,0,0,0,244.3,0h-5.7V2.281h5.661A3.751,3.751,0,0,1,247.978,6V12.04h2.281V5.957A6.082,6.082,0,0,0,248.528,1.732Z" transform="translate(-213.76)"/>
            <path id="Tracé_62" data-name="Tracé 62" d="M6.78,247.018a3.707,3.707,0,0,1-1.1-2.619v-6H3.4v6.041a6.082,6.082,0,0,0,1.732,4.225A6.264,6.264,0,0,0,9.4,250.4H15.06v-2.281H9.4A3.707,3.707,0,0,1,6.78,247.018Z" transform="translate(-3.4 -213.222)"/>
            <path id="Tracé_63" data-name="Tracé 63" d="M247.936,244.441a3.751,3.751,0,0,1-3.718,3.718H238.6v2.281h5.661a6.082,6.082,0,0,0,4.225-1.732,5.9,5.9,0,0,0,1.732-4.225V238.4h-2.281Z" transform="translate(-213.76 -213.222)"/>
            <path id="Tracé_64" data-name="Tracé 64" d="M5.532,1.732A5.9,5.9,0,0,0,3.8,5.957V12H6.081V5.957A3.751,3.751,0,0,1,9.8,2.239H15.46V0h-5.7A6.082,6.082,0,0,0,5.532,1.732Z" transform="translate(-3.758)"/>
          </g>
        </g>
      </g>
    </g>
    <line id="Ligne_9" data-name="Ligne 9" x2="9.898" transform="translate(916.602 3493.5)" fill="none" stroke="#ef3241" stroke-linecap="round" stroke-width="2"/>
    <line id="Ligne_10" data-name="Ligne 10" y2="10.646" transform="translate(899.5 3509.854)" fill="none" stroke="#ef3241" stroke-linecap="round" stroke-width="2"/>
  </g>
</svg>
